%FSTAX53Y53*%
%MOMM*%
%SFA1B1*%

%IPPOS*%
%AMD1010*
%
%ADD10C,0.250000*%
%ADD11C,3.999992*%
%ADD12C,1.499997*%
%ADD13R,1.499997X1.499997*%
%ADD14R,1.499997X1.499997*%
%ADD15C,1.599997*%
%ADD16R,1.599997X1.599997*%
%ADD17C,1.499997*%
%ADD18O,1.999996X3.999992*%
%ADD19O,3.999992X1.999996*%
%ADD20O,4.499991X1.999996*%
%ADD21R,1.599997X1.599997*%
%ADD22C,1.269997*%
%LNmain_board_pcb-1*%
%LPD*%
G36*
X00143509Y00034289D02*
X00058419D01*
Y00102869*
X00143509*
Y00034289*
G37*
%LNmain_board_pcb-2*%
%LPC*%
G36*
X00064559Y00059249D02*
X00064299Y00059219D01*
X00064059Y00059109*
X00063849Y00058949*
X00063679Y00058739*
X00063579Y00058499*
X00063549Y00058239*
X00063579Y00057979*
X00063679Y00057729*
X00063849Y00057519*
X00064059Y00057359*
X00064299Y00057259*
X00064559Y00057229*
X00064819Y00057259*
X00065069Y00057359*
X00065279Y00057519*
X00065439Y00057729*
X00065539Y00057979*
X00065569Y00058239*
X00065539Y00058499*
X00065439Y00058739*
X00065279Y00058949*
X00065069Y00059109*
X00064819Y00059219*
X00064559Y00059249*
G37*
G36*
X00081749D02*
X00081489Y00059219D01*
X00081249Y00059109*
X00081039Y00058949*
X00080879Y00058739*
X00080779Y00058499*
X00080739Y00058239*
X00080779Y00057979*
X00080879Y00057729*
X00081039Y00057519*
X00081249Y00057359*
X00081489Y00057259*
X00081749Y00057229*
X00082019Y00057259*
X00082259Y00057359*
X00082469Y00057519*
X00082629Y00057729*
X00082729Y00057979*
X00082769Y00058239*
X00082729Y00058499*
X00082629Y00058739*
X00082469Y00058949*
X00082259Y00059109*
X00082019Y00059219*
X00081749Y00059249*
G37*
G36*
X00069439Y00058109D02*
X00068569D01*
X00068579Y00057979*
X00068689Y00057729*
X00068849Y00057519*
X00069059Y00057359*
X00069299Y00057259*
X00069439Y00057239*
Y00058109*
G37*
G36*
X00068449Y00054979D02*
Y00054229D01*
X00069209*
X00069189Y00054329*
X00069099Y00054549*
X00068959Y00054739*
X00068769Y00054879*
X00068559Y00054969*
X00068449Y00054979*
G37*
G36*
X00133859Y00056639D02*
X00133599Y00056599D01*
X00133349Y00056499*
X00133139Y00056339*
X00132979Y00056129*
X00132879Y00055889*
X00132849Y00055629*
X00132879Y00055359*
X00132979Y00055119*
X00133139Y00054909*
X00133349Y00054749*
X00133599Y00054649*
X00133859Y00054609*
X00134119Y00054649*
X00134359Y00054749*
X00134569Y00054909*
X00134729Y00055119*
X00134839Y00055359*
X00134869Y00055629*
X00134839Y00055889*
X00134729Y00056129*
X00134569Y00056339*
X00134359Y00056499*
X00134119Y00056599*
X00133859Y00056639*
G37*
G36*
Y00059179D02*
X00133599Y00059139D01*
X00133349Y00059039*
X00133139Y00058879*
X00132979Y00058669*
X00132879Y00058429*
X00132849Y00058169*
X00132879Y00057899*
X00132979Y00057659*
X00133139Y00057449*
X00133349Y00057289*
X00133599Y00057189*
X00133859Y00057149*
X00134119Y00057189*
X00134359Y00057289*
X00134569Y00057449*
X00134729Y00057659*
X00134839Y00057899*
X00134869Y00058169*
X00134839Y00058429*
X00134729Y00058669*
X00134569Y00058879*
X00134359Y00059039*
X00134119Y00059139*
X00133859Y00059179*
G37*
G36*
X00073029Y00058039D02*
X00072269D01*
X00072289Y00057929*
X00072379Y00057719*
X00072519Y00057529*
X00072699Y00057389*
X00072919Y00057299*
X00073029Y00057289*
Y00058039*
G37*
G36*
X00074029D02*
X00073279D01*
Y00057289*
X00073379Y00057299*
X00073599Y00057389*
X00073789Y00057529*
X00073929Y00057719*
X00074019Y00057929*
X00074029Y00058039*
G37*
G36*
X00073029Y00059049D02*
X00072919Y00059029D01*
X00072699Y00058939*
X00072519Y00058799*
X00072379Y00058609*
X00072289Y00058399*
X00072269Y00058289*
X00073029*
Y00059049*
G37*
G36*
X00070559Y00058109D02*
X00069689D01*
Y00057239*
X00069819Y00057259*
X00070069Y00057359*
X00070279Y00057519*
X00070439Y00057729*
X00070539Y00057979*
X00070559Y00058109*
G37*
G36*
X00076629D02*
X00075759D01*
X00075779Y00057979*
X00075879Y00057729*
X00076039Y00057519*
X00076249Y00057359*
X00076489Y00057259*
X00076629Y00057239*
Y00058109*
G37*
G36*
X00077749D02*
X00076879D01*
Y00057239*
X00077019Y00057259*
X00077259Y00057359*
X00077469Y00057519*
X00077629Y00057729*
X00077729Y00057979*
X00077749Y00058109*
G37*
G36*
X00068199Y00054979D02*
X00068089Y00054969D01*
X00067879Y00054879*
X00067689Y00054739*
X00067549Y00054549*
X00067459Y00054329*
X00067449Y00054229*
X00068199*
Y00054979*
G37*
G36*
X00133859Y00054099D02*
X00133599Y00054059D01*
X00133349Y00053959*
X00133139Y00053799*
X00132979Y00053589*
X00132879Y00053349*
X00132849Y00053089*
X00132879Y00052819*
X00132979Y00052579*
X00133139Y00052369*
X00133349Y00052209*
X00133599Y00052109*
X00133859Y00052069*
X00134119Y00052109*
X00134359Y00052209*
X00134569Y00052369*
X00134729Y00052579*
X00134839Y00052819*
X00134869Y00053089*
X00134839Y00053349*
X00134729Y00053589*
X00134569Y00053799*
X00134359Y00053959*
X00134119Y00054059*
X00133859Y00054099*
G37*
G36*
X00122979Y00053209D02*
X00122229D01*
X00122239Y00053109*
X00122329Y00052889*
X00122479Y00052709*
X00122659Y00052559*
X00122879Y00052469*
X00122979Y00052459*
Y00053209*
G37*
G36*
X00123989D02*
X00123239D01*
Y00052459*
X00123339Y00052469*
X00123559Y00052559*
X00123739Y00052709*
X00123889Y00052889*
X00123979Y00053109*
X00123989Y00053209*
G37*
G36*
X00094609Y00051439D02*
X00093849D01*
Y00050679*
X00093959Y00050699*
X00094169Y00050789*
X00094359Y00050929*
X00094499Y00051109*
X00094589Y00051329*
X00094609Y00051439*
G37*
G36*
X00093599Y00052439D02*
X00093489Y00052429D01*
X00093279Y00052339*
X00093089Y00052199*
X00092949Y00052009*
X00092859Y00051789*
X00092849Y00051689*
X00093599*
Y00052439*
G37*
G36*
X00093849D02*
Y00051689D01*
X00094609*
X00094589Y00051789*
X00094499Y00052009*
X00094359Y00052199*
X00094169Y00052339*
X00093959Y00052429*
X00093849Y00052439*
G37*
G36*
X00123239Y00054219D02*
Y00053469D01*
X00123989*
X00123979Y00053569*
X00123889Y00053789*
X00123739Y00053969*
X00123559Y00054119*
X00123339Y00054209*
X00123239Y00054219*
G37*
G36*
X00116339Y00055889D02*
X00116079Y00055859D01*
X00115829Y00055749*
X00115619Y00055589*
X00115459Y00055379*
X00115359Y00055139*
X00115329Y00054879*
X00115359Y00054619*
X00115459Y00054369*
X00115619Y00054159*
X00115829Y00053999*
X00116079Y00053899*
X00116339Y00053869*
X00116599Y00053899*
X00116839Y00053999*
X00117049Y00054159*
X00117209Y00054369*
X00117319Y00054619*
X00117349Y00054879*
X00117319Y00055139*
X00117209Y00055379*
X00117049Y00055589*
X00116839Y00055749*
X00116599Y00055859*
X00116339Y00055889*
G37*
G36*
X00110839Y00055879D02*
X00108829D01*
Y00053869*
X00110839*
Y00055879*
G37*
G36*
X00068199Y00053969D02*
X00067449D01*
X00067459Y00053869*
X00067549Y00053649*
X00067689Y00053469*
X00067879Y00053329*
X00068089Y00053239*
X00068199Y00053219*
Y00053969*
G37*
G36*
X00069209D02*
X00068449D01*
Y00053219*
X00068559Y00053239*
X00068769Y00053329*
X00068959Y00053469*
X00069099Y00053649*
X00069189Y00053869*
X00069209Y00053969*
G37*
G36*
X00122979Y00054219D02*
X00122879Y00054209D01*
X00122659Y00054119*
X00122479Y00053969*
X00122329Y00053789*
X00122239Y00053569*
X00122229Y00053469*
X00122979*
Y00054219*
G37*
G36*
X00101969Y00067179D02*
X00101219D01*
Y00066429*
X00101319Y00066439*
X00101539Y00066529*
X00101729Y00066679*
X00101869Y00066859*
X00101959Y00067079*
X00101969Y00067179*
G37*
G36*
X00100959Y00068189D02*
X00100859Y00068179D01*
X00100639Y00068089*
X00100459Y00067939*
X00100319Y00067759*
X00100229Y00067539*
X00100209Y00067439*
X00100959*
Y00068189*
G37*
G36*
X00101219D02*
Y00067439D01*
X00101969*
X00101959Y00067539*
X00101869Y00067759*
X00101729Y00067939*
X00101539Y00068089*
X00101319Y00068179*
X00101219Y00068189*
G37*
G36*
X00109089Y00064889D02*
X00108989Y00064869D01*
X00108769Y00064779*
X00108589Y00064639*
X00108439Y00064459*
X00108349Y00064239*
X00108339Y00064139*
X00109089*
Y00064889*
G37*
G36*
X00109349D02*
Y00064139D01*
X00110099*
X00110089Y00064239*
X00109999Y00064459*
X00109849Y00064639*
X00109669Y00064779*
X00109449Y00064869*
X00109349Y00064889*
G37*
G36*
X00100959Y00067179D02*
X00100209D01*
X00100229Y00067079*
X00100319Y00066859*
X00100459Y00066679*
X00100639Y00066529*
X00100859Y00066439*
X00100959Y00066429*
Y00067179*
G37*
G36*
X00136269Y00075059D02*
X00135519D01*
X00135529Y00074949*
X00135619Y00074739*
X00135759Y00074549*
X00135949Y00074409*
X00136169Y00074319*
X00136269Y00074299*
Y00075059*
G37*
G36*
X00137279D02*
X00136519D01*
Y00074299*
X00136629Y00074319*
X00136849Y00074409*
X00137029Y00074549*
X00137169Y00074739*
X00137259Y00074949*
X00137279Y00075059*
G37*
G36*
X00136269Y00076059D02*
X00136169Y00076049D01*
X00135949Y00075959*
X00135759Y00075819*
X00135619Y00075629*
X00135529Y00075419*
X00135519Y00075309*
X00136269*
Y00076059*
G37*
G36*
X00116459Y00036439D02*
Y00035689D01*
X00117209*
X00117199Y00035789*
X00117109Y00036009*
X00116969Y00036189*
X00116779Y00036339*
X00116559Y00036429*
X00116459Y00036439*
G37*
G36*
X00116209D02*
X00116099Y00036429D01*
X00115879Y00036339*
X00115699Y00036189*
X00115559Y00036009*
X00115469Y00035789*
X00115449Y00035689*
X00116209*
Y00036439*
G37*
G36*
X00107489Y00088269D02*
X00107259Y00088239D01*
X00107039Y00088149*
X00106859Y00088009*
X00106719Y00087819*
X00106629Y00087609*
X00106599Y00087379*
X00106629Y00087139*
X00106719Y00086929*
X00106859Y00086739*
X00107039Y00086599*
X00107259Y00086509*
X00107489Y00086479*
X00107719Y00086509*
X00107939Y00086599*
X00108129Y00086739*
X00108269Y00086929*
X00108289Y00086989*
X00118709*
X00122229Y00083469*
X00122189Y00083349*
X00121979Y00083329*
X00121769Y00083239*
X00121579Y00083089*
X00121439Y00082909*
X00121349Y00082689*
X00121319Y00082459*
X00121349Y00082229*
X00121439Y00082009*
X00121579Y00081819*
X00121769Y00081679*
X00121979Y00081589*
X00122219Y00081559*
X00122449Y00081589*
X00122509Y00081619*
X00123059Y00081069*
Y00080749*
X00122939Y00080719*
X00122759Y00080859*
X00122539Y00080949*
X00122309Y00080979*
X00122069Y00080949*
X00121859Y00080859*
X00121669Y00080719*
X00121529Y00080529*
X00121439Y00080309*
X00121409Y00080079*
X00121439Y00079849*
X00121529Y00079629*
X00121669Y00079449*
X00121859Y00079309*
X00121919Y00079279*
Y00077079*
X00121949Y00076929*
X00122029Y00076809*
X00127419Y00071429*
X00127539Y00071339*
X00127689Y00071309*
X00138269*
X00138319Y00071189*
X00138479Y00070979*
X00138669Y00070839*
X00138629Y00070719*
X00122649*
X00122499Y00070689*
X00122489Y00070679*
X00122409Y00070719*
X00122169Y00070749*
X00121939Y00070719*
X00121729Y00070629*
X00121539Y00070479*
X00121399Y00070299*
X00121309Y00070079*
X00121279Y00069849*
X00121309Y00069619*
X00121399Y00069399*
X00121539Y00069219*
X00121729Y00069069*
X00121939Y00068979*
X00122169Y00068949*
X00122409Y00068979*
X00122619Y00069069*
X00122809Y00069219*
X00122949Y00069399*
X00123039Y00069619*
X00123069Y00069849*
X00123149Y00069939*
X00124749*
X00124789Y00069819*
X00124659Y00069719*
X00124519Y00069539*
X00124429Y00069319*
X00124399Y00069089*
X00124429Y00068859*
X00124519Y00068639*
X00124659Y00068449*
X00124849Y00068309*
X00125059Y00068219*
X00125289Y00068189*
X00125529Y00068219*
X00125739Y00068309*
X00125929Y00068449*
X00126069Y00068639*
X00126099Y00068699*
X00137509*
X00138639Y00067569*
X00138629Y00067449*
X00138479Y00067339*
X00138319Y00067129*
X00138219Y00066879*
X00138189Y00066619*
X00138219Y00066359*
X00138319Y00066109*
X00138479Y00065899*
X00138689Y00065739*
X00138939Y00065639*
X00139199Y00065609*
X00139459Y00065639*
X00139699Y00065739*
X00139909Y00065899*
X00140069Y00066109*
X00140179Y00066359*
X00140209Y00066619*
X00140179Y00066879*
X00140069Y00067129*
X00139979Y00067249*
X00140039Y00067359*
X00140169*
X00140749Y00066779*
X00140729Y00066619*
X00140759Y00066359*
X00140859Y00066109*
X00141019Y00065899*
X00141229Y00065739*
X00141479Y00065639*
X00141739Y00065609*
X00141999Y00065639*
X00142239Y00065739*
X00142449Y00065899*
X00142609Y00066109*
X00142719Y00066359*
X00142749Y00066619*
X00142719Y00066879*
X00142609Y00067129*
X00142449Y00067339*
X00142239Y00067499*
X00141999Y00067599*
X00141739Y00067629*
X00141479Y00067599*
X00141229Y00067499*
X00141179Y00067449*
X00140599Y00068029*
X00140479Y00068109*
X00140329Y00068139*
X00139679*
X00139659Y00068259*
X00139699Y00068279*
X00139909Y00068439*
X00140069Y00068649*
X00140179Y00068899*
X00140209Y00069159*
X00140179Y00069419*
X00140069Y00069669*
X00139949Y00069829*
X00140009Y00069939*
X00140409*
X00140809Y00069539*
X00140759Y00069419*
X00140729Y00069159*
X00140759Y00068899*
X00140859Y00068649*
X00141019Y00068439*
X00141229Y00068279*
X00141479Y00068179*
X00141739Y00068149*
X00141999Y00068179*
X00142239Y00068279*
X00142449Y00068439*
X00142609Y00068649*
X00142719Y00068899*
X00142749Y00069159*
X00142719Y00069419*
X00142609Y00069669*
X00142449Y00069879*
X00142239Y00070039*
X00141999Y00070139*
X00141739Y00070169*
X00141479Y00070139*
X00141359Y00070089*
X00140839Y00070599*
X00140719Y00070689*
X00140569Y00070719*
X00139759*
X00139719Y00070839*
X00139909Y00070979*
X00140069Y00071189*
X00140179Y00071439*
X00140209Y00071699*
X00140179Y00071959*
X00140069Y00072209*
X00139969Y00072339*
X00140029Y00072449*
X00140429*
X00140809Y00072079*
X00140759Y00071959*
X00140729Y00071699*
X00140759Y00071439*
X00140859Y00071189*
X00141019Y00070979*
X00141229Y00070819*
X00141479Y00070719*
X00141739Y00070689*
X00141999Y00070719*
X00142239Y00070819*
X00142449Y00070979*
X00142609Y00071189*
X00142719Y00071439*
X00142749Y00071699*
X00142719Y00071959*
X00142609Y00072209*
X00142449Y00072419*
X00142239Y00072579*
X00141999Y00072679*
X00141739Y00072709*
X00141479Y00072679*
X00141359Y00072629*
X00140869Y00073119*
X00140739Y00073199*
X00140589Y00073229*
X00139709*
X00139689Y00073359*
X00139699*
X00139909Y00073519*
X00140069Y00073729*
X00140119Y00073849*
X00140809*
X00140859Y00073729*
X00141019Y00073519*
X00141229Y00073359*
X00141479Y00073259*
X00141739Y00073229*
X00141999Y00073259*
X00142239Y00073359*
X00142449Y00073519*
X00142609Y00073729*
X00142719Y00073979*
X00142749Y00074239*
X00142719Y00074499*
X00142609Y00074749*
X00142449Y00074959*
X00142239Y00075119*
X00141999Y00075219*
X00141739Y00075249*
X00141479Y00075219*
X00141229Y00075119*
X00141019Y00074959*
X00140859Y00074749*
X00140809Y00074629*
X00140119*
X00140069Y00074749*
X00139909Y00074959*
X00139699Y00075119*
X00139459Y00075219*
X00139199Y00075249*
X00138939Y00075219*
X00138689Y00075119*
X00138479Y00074959*
X00138319Y00074749*
X00138219Y00074499*
X00138189Y00074239*
X00138219Y00073979*
X00138319Y00073729*
X00138479Y00073519*
X00138689Y00073359*
X00138709*
X00138679Y00073229*
X00128489*
X00123829Y00077879*
Y00081229*
X00123799Y00081379*
X00123719Y00081509*
X00123059Y00082169*
X00123079Y00082229*
X00123109Y00082429*
X00123229Y00082469*
X00124069Y00081629*
Y00078739*
X00124099Y00078589*
X00124189Y00078469*
X00127739Y00074909*
X00127869Y00074829*
X00128019Y00074799*
X00128989*
X00129019Y00074739*
X00129159Y00074549*
X00129349Y00074409*
X00129559Y00074319*
X00129789Y00074289*
X00130029Y00074319*
X00130239Y00074409*
X00130429Y00074549*
X00130569Y00074739*
X00130659Y00074949*
X00130689Y00075179*
X00130659Y00075419*
X00130569Y00075629*
X00130429Y00075819*
X00130239Y00075959*
X00130029Y00076049*
X00129789Y00076079*
X00129559Y00076049*
X00129349Y00075959*
X00129159Y00075819*
X00129019Y00075629*
X00128989Y00075569*
X00128179*
X00124849Y00078899*
Y00081789*
X00124819Y00081939*
X00124729Y00082059*
X00119149Y00087649*
X00119019Y00087729*
X00118869Y00087759*
X00108289*
X00108269Y00087819*
X00108129Y00088009*
X00107939Y00088149*
X00107719Y00088239*
X00107489Y00088269*
G37*
G36*
X00110099Y00063879D02*
X00109349D01*
Y00063129*
X00109449Y00063139*
X00109669Y00063229*
X00109849Y00063369*
X00109999Y00063559*
X00110089Y00063779*
X00110099Y00063879*
G37*
G36*
X00069689Y00059229D02*
Y00058359D01*
X00070559*
X00070539Y00058499*
X00070439Y00058739*
X00070279Y00058949*
X00070069Y00059109*
X00069819Y00059219*
X00069689Y00059229*
G37*
G36*
X00076629D02*
X00076489Y00059219D01*
X00076249Y00059109*
X00076039Y00058949*
X00075879Y00058739*
X00075779Y00058499*
X00075759Y00058359*
X00076629*
Y00059229*
G37*
G36*
X00076879D02*
Y00058359D01*
X00077749*
X00077729Y00058499*
X00077629Y00058739*
X00077469Y00058949*
X00077259Y00059109*
X00077019Y00059219*
X00076879Y00059229*
G37*
G36*
X00136519Y00076059D02*
Y00075309D01*
X00137279*
X00137259Y00075419*
X00137169Y00075629*
X00137029Y00075819*
X00136849Y00075959*
X00136629Y00076049*
X00136519Y00076059*
G37*
G36*
X00073279Y00059049D02*
Y00058289D01*
X00074029*
X00074019Y00058399*
X00073929Y00058609*
X00073789Y00058799*
X00073599Y00058939*
X00073379Y00059029*
X00073279Y00059049*
G37*
G36*
X00069439Y00059229D02*
X00069299Y00059219D01*
X00069059Y00059109*
X00068849Y00058949*
X00068689Y00058739*
X00068579Y00058499*
X00068569Y00058359*
X00069439*
Y00059229*
G37*
G36*
X00068709Y00063109D02*
X00068599Y00063099D01*
X00068389Y00063009*
X00068199Y00062859*
X00068059Y00062679*
X00067969Y00062459*
X00067949Y00062359*
X00068709*
Y00063109*
G37*
G36*
X00068959D02*
Y00062359D01*
X00069709*
X00069699Y00062459*
X00069609Y00062679*
X00069469Y00062859*
X00069279Y00063009*
X00069069Y00063099*
X00068959Y00063109*
G37*
G36*
X00109089Y00063879D02*
X00108339D01*
X00108349Y00063779*
X00108439Y00063559*
X00108589Y00063369*
X00108769Y00063229*
X00108989Y00063139*
X00109089Y00063129*
Y00063879*
G37*
G36*
X00134859Y00061709D02*
X00132849D01*
Y00059699*
X00134859*
Y00061709*
G37*
G36*
X00068709Y00062099D02*
X00067949D01*
X00067969Y00061999*
X00068059Y00061779*
X00068199Y00061599*
X00068389Y00061449*
X00068599Y00061359*
X00068709Y00061349*
Y00062099*
G37*
G36*
X00069709D02*
X00068959D01*
Y00061349*
X00069069Y00061359*
X00069279Y00061449*
X00069469Y00061599*
X00069609Y00061779*
X00069699Y00061999*
X00069709Y00062099*
G37*
G36*
X00085209Y00039239D02*
X00084459D01*
Y00038489*
X00084559Y00038499*
X00084779Y00038589*
X00084959Y00038739*
X00085099Y00038919*
X00085189Y00039139*
X00085209Y00039239*
G37*
G36*
X00133729Y00040009D02*
X00132859D01*
X00132879Y00039869*
X00132979Y00039629*
X00133139Y00039419*
X00133349Y00039259*
X00133599Y00039149*
X00133729Y00039139*
Y00040009*
G37*
G36*
X00134849D02*
X00133989D01*
Y00039139*
X00134119Y00039149*
X00134359Y00039259*
X00134569Y00039419*
X00134729Y00039629*
X00134839Y00039869*
X00134849Y00040009*
G37*
G36*
X00100339Y00040509D02*
X00100059Y00040469D01*
X00099799Y00040359*
X00099579Y00040189*
X00099419Y00039969*
X00099309Y00039719*
X00099269Y00039439*
X00099309Y00039169*
X00099419Y00038909*
X00099579Y00038689*
X00099799Y00038519*
X00100059Y00038419*
X00100339Y00038379*
X00100609Y00038419*
X00100869Y00038519*
X00101089Y00038689*
X00101259Y00038909*
X00101359Y00039169*
X00101399Y00039439*
X00101359Y00039719*
X00101259Y00039969*
X00101089Y00040189*
X00100869Y00040359*
X00100609Y00040469*
X00100339Y00040509*
G37*
G36*
X00103929Y00040499D02*
X00101819D01*
Y00038389*
X00103929*
Y00040499*
G37*
G36*
X00084199Y00039239D02*
X00083449D01*
X00083459Y00039139*
X00083549Y00038919*
X00083689Y00038739*
X00083879Y00038589*
X00084099Y00038499*
X00084199Y00038489*
Y00039239*
G37*
G36*
X00133729Y00041129D02*
X00133599Y00041109D01*
X00133349Y00041009*
X00133139Y00040849*
X00132979Y00040639*
X00132879Y00040389*
X00132859Y00040259*
X00133729*
Y00041129*
G37*
G36*
X00133989D02*
Y00040259D01*
X00134849*
X00134839Y00040389*
X00134729Y00040639*
X00134569Y00040849*
X00134359Y00041009*
X00134119Y00041109*
X00133989Y00041129*
G37*
G36*
X00111299Y00042989D02*
X00111039Y00042959D01*
X00110789Y00042859*
X00110579Y00042699*
X00110419Y00042489*
X00110319Y00042239*
X00110289Y00041979*
X00110319Y00041719*
X00110419Y00041479*
X00110579Y00041269*
X00110789Y00041099*
X00111039Y00040999*
X00111299Y00040969*
X00111559Y00040999*
X00111799Y00041099*
X00112009Y00041269*
X00112169Y00041479*
X00112279Y00041719*
X00112309Y00041979*
X00112279Y00042239*
X00112169Y00042489*
X00112009Y00042699*
X00111799Y00042859*
X00111559Y00042959*
X00111299Y00042989*
G37*
G36*
X00064809Y00041259D02*
X00062709D01*
Y00039149*
X00064809*
Y00041259*
G37*
G36*
X00084199Y00040249D02*
X00084099Y00040239D01*
X00083879Y00040149*
X00083689Y00039999*
X00083549Y00039819*
X00083459Y00039599*
X00083449Y00039499*
X00084199*
Y00040249*
G37*
G36*
X00084459D02*
Y00039499D01*
X00085209*
X00085189Y00039599*
X00085099Y00039819*
X00084959Y00039999*
X00084779Y00040149*
X00084559Y00040239*
X00084459Y00040249*
G37*
G36*
X00097799Y00040509D02*
X00097519Y00040469D01*
X00097259Y00040359*
X00097039Y00040189*
X00096879Y00039969*
X00096769Y00039719*
X00096729Y00039439*
X00096769Y00039169*
X00096879Y00038909*
X00097039Y00038689*
X00097259Y00038519*
X00097519Y00038419*
X00097799Y00038379*
X00098069Y00038419*
X00098329Y00038519*
X00098549Y00038689*
X00098719Y00038909*
X00098819Y00039169*
X00098859Y00039439*
X00098819Y00039719*
X00098719Y00039969*
X00098549Y00040189*
X00098329Y00040359*
X00098069Y00040469*
X00097799Y00040509*
G37*
G36*
X00134859Y00037469D02*
X00133989D01*
Y00036589*
X00134859*
Y00037469*
G37*
G36*
X00060829Y00039079D02*
X00060519Y00039049D01*
X00060089Y00038919*
X00059699Y00038709*
X00059359Y00038429*
X00059079Y00038089*
X00058869Y00037699*
X00058739Y00037269*
X00058709Y00036959*
X00060829*
Y00039079*
G37*
G36*
X00061089D02*
Y00036959D01*
X00063209*
X00063179Y00037269*
X00063049Y00037699*
X00062839Y00038089*
X00062559Y00038429*
X00062219Y00038709*
X00061829Y00038919*
X00061399Y00039049*
X00061089Y00039079*
G37*
G36*
X00090039Y00037209D02*
X00089289D01*
X00089299Y00037109*
X00089389Y00036889*
X00089539Y00036699*
X00089719Y00036559*
X00089939Y00036469*
X00090039Y00036459*
Y00037209*
G37*
G36*
X00091049D02*
X00090299D01*
Y00036459*
X00090399Y00036469*
X00090619Y00036559*
X00090799Y00036699*
X00090949Y00036889*
X00091039Y00037109*
X00091049Y00037209*
G37*
G36*
X00133729Y00037469D02*
X00132849D01*
Y00036589*
X00133729*
Y00037469*
G37*
G36*
X00090299Y00038219D02*
Y00037469D01*
X00091049*
X00091039Y00037569*
X00090949Y00037789*
X00090799Y00037969*
X00090619Y00038109*
X00090399Y00038199*
X00090299Y00038219*
G37*
G36*
X00133729Y00038599D02*
X00132849D01*
Y00037719*
X00133729*
Y00038599*
G37*
G36*
X00134859D02*
X00133989D01*
Y00037719*
X00134859*
Y00038599*
G37*
G36*
X00140589Y00039339D02*
X00140269Y00039309D01*
X00139849Y00039179*
X00139459Y00038969*
X00139109Y00038689*
X00138829Y00038339*
X00138619Y00037949*
X00138489Y00037529*
X00138459Y00037209*
X00140589*
Y00039339*
G37*
G36*
X00140839D02*
Y00037209D01*
X00142969*
X00142939Y00037529*
X00142809Y00037949*
X00142599Y00038339*
X00142319Y00038689*
X00141969Y00038969*
X00141579Y00039179*
X00141159Y00039309*
X00140839Y00039339*
G37*
G36*
X00090039Y00038219D02*
X00089939Y00038199D01*
X00089719Y00038109*
X00089539Y00037969*
X00089389Y00037789*
X00089299Y00037569*
X00089289Y00037469*
X00090039*
Y00038219*
G37*
G36*
X00116169Y00041849D02*
X00115299D01*
X00115319Y00041719*
X00115419Y00041479*
X00115579Y00041269*
X00115789Y00041099*
X00116039Y00040999*
X00116169Y00040989*
Y00041849*
G37*
G36*
X00068139Y00046249D02*
X00067389D01*
Y00045499*
X00067499Y00045509*
X00067709Y00045599*
X00067899Y00045739*
X00068039Y00045929*
X00068129Y00046139*
X00068139Y00046249*
G37*
G36*
X00089209Y00048379D02*
X00089009Y00048349D01*
X00088699Y00048229*
X00088439Y00048029*
X00088239Y00047759*
X00088109Y00047459*
X00088069Y00047129*
Y00046259*
X00089209*
Y00048379*
G37*
G36*
X00089459D02*
Y00046259D01*
X00090599*
Y00047129*
X00090559Y00047459*
X00090429Y00047759*
X00090229Y00048029*
X00089969Y00048229*
X00089659Y00048349*
X00089459Y00048379*
G37*
G36*
X00078109Y00046099D02*
X00077349D01*
X00077369Y00045999*
X00077459Y00045779*
X00077599Y00045589*
X00077779Y00045449*
X00077999Y00045359*
X00078109Y00045349*
Y00046099*
G37*
G36*
X00079109D02*
X00078359D01*
Y00045349*
X00078459Y00045359*
X00078679Y00045449*
X00078869Y00045589*
X00079009Y00045779*
X00079099Y00045999*
X00079109Y00046099*
G37*
G36*
X00067139Y00046249D02*
X00066379D01*
X00066399Y00046139*
X00066489Y00045929*
X00066629Y00045739*
X00066819Y00045599*
X00067029Y00045509*
X00067139Y00045499*
Y00046249*
G37*
G36*
X00067389Y00047259D02*
Y00046499D01*
X00068139*
X00068129Y00046609*
X00068039Y00046829*
X00067899Y00047009*
X00067709Y00047149*
X00067499Y00047239*
X00067389Y00047259*
G37*
G36*
X00085579Y00050599D02*
X00083079D01*
X00082759Y00050549*
X00082449Y00050429*
X00082189Y00050229*
X00081989Y00049959*
X00081959Y00049889*
X00065679*
X00065659Y00049909*
X00065469Y00050049*
X00065259Y00050139*
X00065019Y00050169*
X00064789Y00050139*
X00064579Y00050049*
X00064389Y00049909*
X00064249Y00049719*
X00064159Y00049509*
X00064129Y00049279*
X00064159Y00049039*
X00064249Y00048829*
X00064389Y00048639*
X00064579Y00048499*
X00064789Y00048409*
X00065019Y00048379*
X00065259Y00048409*
X00065469Y00048499*
X00065659Y00048639*
X00065799Y00048829*
X00065889Y00049039*
X00065899Y00049109*
X00081849*
X00081859Y00048999*
X00081989Y00048699*
X00082189Y00048439*
X00082449Y00048239*
X00082759Y00048109*
X00083079Y00048069*
X00085579*
X00085909Y00048109*
X00086219Y00048239*
X00086479Y00048439*
X00086679Y00048699*
X00086809Y00048999*
X00086849Y00049329*
X00086809Y00049659*
X00086679Y00049959*
X00086479Y00050229*
X00086219Y00050429*
X00085909Y00050549*
X00085579Y00050599*
G37*
G36*
X00093599Y00051439D02*
X00092849D01*
X00092859Y00051329*
X00092949Y00051109*
X00093089Y00050929*
X00093279Y00050789*
X00093489Y00050699*
X00093599Y00050679*
Y00051439*
G37*
G36*
X00078109Y00047109D02*
X00077999Y00047089D01*
X00077779Y00046999*
X00077599Y00046859*
X00077459Y00046679*
X00077369Y00046459*
X00077349Y00046349*
X00078109*
Y00047109*
G37*
G36*
X00078359D02*
Y00046349D01*
X00079109*
X00079099Y00046459*
X00079009Y00046679*
X00078869Y00046859*
X00078679Y00046999*
X00078459Y00047089*
X00078359Y00047109*
G37*
G36*
X00067139Y00047259D02*
X00067029Y00047239D01*
X00066819Y00047149*
X00066629Y00047009*
X00066489Y00046829*
X00066399Y00046609*
X00066379Y00046499*
X00067139*
Y00047259*
G37*
G36*
X00063759Y00046349D02*
X00063479Y00046309D01*
X00063229Y00046199*
X00063009Y00046039*
X00062839Y00045819*
X00062729Y00045559*
X00062699Y00045279*
X00062729Y00045009*
X00062839Y00044749*
X00063009Y00044529*
X00063229Y00044359*
X00063479Y00044259*
X00063759Y00044219*
X00064039Y00044259*
X00064289Y00044359*
X00064509Y00044529*
X00064679Y00044749*
X00064789Y00045009*
X00064819Y00045279*
X00064789Y00045559*
X00064679Y00045819*
X00064509Y00046039*
X00064289Y00046199*
X00064039Y00046309*
X00063759Y00046349*
G37*
G36*
X00084209Y00042999D02*
X00082089D01*
X00082109Y00042799*
X00082239Y00042499*
X00082439Y00042239*
X00082699Y00042039*
X00083009Y00041909*
X00083329Y00041869*
X00084209*
Y00042999*
G37*
G36*
X00086579D02*
X00084459D01*
Y00041869*
X00085329*
X00085659Y00041909*
X00085969Y00042039*
X00086229Y00042239*
X00086429Y00042499*
X00086559Y00042799*
X00086579Y00042999*
G37*
G36*
X00116169Y00042979D02*
X00116039Y00042959D01*
X00115789Y00042859*
X00115579Y00042699*
X00115419Y00042489*
X00115319Y00042239*
X00115299Y00042109*
X00116169*
Y00042979*
G37*
G36*
X00117289Y00041849D02*
X00116429D01*
Y00040989*
X00116559Y00040999*
X00116799Y00041099*
X00117009Y00041269*
X00117179Y00041479*
X00117279Y00041719*
X00117289Y00041849*
G37*
G36*
X00133859Y00043679D02*
X00133599Y00043649D01*
X00133349Y00043549*
X00133139Y00043389*
X00132979Y00043179*
X00132879Y00042929*
X00132849Y00042669*
X00132879Y00042409*
X00132979Y00042169*
X00133139Y00041959*
X00133349Y00041799*
X00133599Y00041689*
X00133859Y00041659*
X00134119Y00041689*
X00134359Y00041799*
X00134569Y00041959*
X00134729Y00042169*
X00134839Y00042409*
X00134869Y00042669*
X00134839Y00042929*
X00134729Y00043179*
X00134569Y00043389*
X00134359Y00043549*
X00134119Y00043649*
X00133859Y00043679*
G37*
G36*
X00063759Y00043809D02*
X00063479Y00043769D01*
X00063229Y00043659*
X00063009Y00043499*
X00062839Y00043279*
X00062729Y00043019*
X00062699Y00042739*
X00062729Y00042469*
X00062839Y00042209*
X00063009Y00041989*
X00063229Y00041819*
X00063479Y00041719*
X00063759Y00041679*
X00064039Y00041719*
X00064289Y00041819*
X00064509Y00041989*
X00064679Y00042209*
X00064789Y00042469*
X00064819Y00042739*
X00064789Y00043019*
X00064679Y00043279*
X00064509Y00043499*
X00064289Y00043659*
X00064039Y00043769*
X00063759Y00043809*
G37*
G36*
X00089209Y00045999D02*
X00088069D01*
Y00045129*
X00088109Y00044799*
X00088239Y00044499*
X00088439Y00044239*
X00088699Y00044039*
X00089009Y00043909*
X00089209Y00043879*
Y00045999*
G37*
G36*
X00090599D02*
X00089459D01*
Y00043879*
X00089659Y00043909*
X00089969Y00044039*
X00090229Y00044239*
X00090429Y00044499*
X00090559Y00044799*
X00090599Y00045129*
Y00045999*
G37*
G36*
X00133859Y00046219D02*
X00133599Y00046189D01*
X00133349Y00046089*
X00133139Y00045929*
X00132979Y00045719*
X00132879Y00045469*
X00132849Y00045209*
X00132879Y00044949*
X00132979Y00044709*
X00133139Y00044499*
X00133349Y00044339*
X00133599Y00044229*
X00133859Y00044199*
X00134119Y00044229*
X00134359Y00044339*
X00134569Y00044499*
X00134729Y00044709*
X00134839Y00044949*
X00134869Y00045209*
X00134839Y00045469*
X00134729Y00045719*
X00134569Y00045929*
X00134359Y00046089*
X00134119Y00046189*
X00133859Y00046219*
G37*
G36*
X00116429Y00042979D02*
Y00042109D01*
X00117289*
X00117279Y00042239*
X00117179Y00042489*
X00117009Y00042699*
X00116799Y00042859*
X00116559Y00042959*
X00116429Y00042979*
G37*
G36*
X00084209Y00044399D02*
X00083329D01*
X00083009Y00044349*
X00082699Y00044229*
X00082439Y00044029*
X00082239Y00043759*
X00082109Y00043459*
X00082089Y00043259*
X00084209*
Y00044399*
G37*
G36*
X00085329D02*
X00084459D01*
Y00043259*
X00086579*
X00086559Y00043459*
X00086429Y00043759*
X00086229Y00044029*
X00085969Y00044229*
X00085659Y00044349*
X00085329Y00044399*
G37*
G36*
X00133679Y00092979D02*
X00133579Y00092959D01*
X00133359Y00092869*
X00133179Y00092729*
X00133039Y00092549*
X00132949Y00092329*
X00132929Y00092219*
X00133679*
Y00092979*
G37*
G36*
X00133939D02*
Y00092219D01*
X00134689*
X00134679Y00092329*
X00134589Y00092549*
X00134449Y00092729*
X00134259Y00092869*
X00134039Y00092959*
X00133939Y00092979*
G37*
G36*
X00106359Y00093689D02*
X00106249Y00093669D01*
X00106029Y00093579*
X00105849Y00093439*
X00105709Y00093259*
X00105619Y00093039*
X00105599Y00092929*
X00106359*
Y00093689*
G37*
G36*
X00120779Y00092829D02*
Y00092069D01*
X00121529*
X00121519Y00092179*
X00121429Y00092399*
X00121279Y00092579*
X00121099Y00092719*
X00120879Y00092809*
X00120779Y00092829*
G37*
G36*
X00139069Y00093019D02*
X00138939Y00092999D01*
X00138689Y00092899*
X00138479Y00092739*
X00138319Y00092529*
X00138219Y00092279*
X00138199Y00092149*
X00139069*
Y00093019*
G37*
G36*
X00139319D02*
Y00092149D01*
X00140189*
X00140179Y00092279*
X00140069Y00092529*
X00139909Y00092739*
X00139699Y00092899*
X00139459Y00092999*
X00139319Y00093019*
G37*
G36*
X00141609Y00094429D02*
X00140739D01*
X00140759Y00094299*
X00140859Y00094049*
X00141019Y00093839*
X00141229Y00093679*
X00141479Y00093579*
X00141609Y00093559*
Y00094429*
G37*
G36*
X00142729D02*
X00141859D01*
Y00093559*
X00141999Y00093579*
X00142239Y00093679*
X00142449Y00093839*
X00142609Y00094049*
X00142719Y00094299*
X00142729Y00094429*
G37*
G36*
X00141609Y00095559D02*
X00141479Y00095539D01*
X00141229Y00095439*
X00141019Y00095279*
X00140859Y00095069*
X00140759Y00094819*
X00140739Y00094689*
X00141609*
Y00095559*
G37*
G36*
X00106609Y00093689D02*
Y00092929D01*
X00107359*
X00107349Y00093039*
X00107259Y00093259*
X00107119Y00093439*
X00106929Y00093579*
X00106709Y00093669*
X00106609Y00093689*
G37*
G36*
X00073159Y00096239D02*
X00072929Y00096209D01*
X00072709Y00096119*
X00072519Y00095979*
X00072379Y00095799*
X00072289Y00095579*
X00072259Y00095349*
X00072289Y00095119*
X00072379Y00094899*
X00072519Y00094709*
X00072709Y00094569*
X00072929Y00094479*
X00073159Y00094449*
X00073389Y00094479*
X00073609Y00094569*
X00073789Y00094709*
X00073929Y00094899*
X00073979Y00095009*
X00076699*
X00076749Y00094889*
X00073509Y00091649*
X00068779*
X00068739Y00091769*
X00068789Y00091809*
X00068949Y00092019*
X00069059Y00092269*
X00069089Y00092529*
X00069059Y00092789*
X00068949Y00093029*
X00068789Y00093239*
X00068579Y00093399*
X00068339Y00093509*
X00068299*
X00068309Y00093639*
X00069559*
X00069589Y00093579*
X00069729Y00093389*
X00069919Y00093249*
X00070129Y00093159*
X00070359Y00093129*
X00070599Y00093159*
X00070809Y00093249*
X00070999Y00093389*
X00071139Y00093579*
X00071229Y00093789*
X00071259Y00094029*
X00071229Y00094259*
X00071139Y00094469*
X00070999Y00094659*
X00070809Y00094799*
X00070599Y00094889*
X00070359Y00094919*
X00070129Y00094889*
X00069919Y00094799*
X00069729Y00094659*
X00069589Y00094469*
X00069559Y00094419*
X00067039*
X00066889Y00094389*
X00066759Y00094299*
X00065989Y00093529*
X00064529*
Y00092069*
X00064119Y00091659*
X00064039Y00091529*
X00064009Y00091379*
Y00089349*
X00064039Y00089199*
X00064119Y00089079*
X00064759Y00088439*
X00064879Y00088359*
X00064889*
X00064899Y00088309*
X00064879Y00088209*
X00064819Y00088159*
X00064659Y00087949*
X00064559Y00087709*
X00064529Y00087449*
X00064559Y00087189*
X00064659Y00086939*
X00064819Y00086729*
X00065029Y00086569*
X00065279Y00086469*
X00065539Y00086439*
X00065799Y00086469*
X00066039Y00086569*
X00066249Y00086729*
X00066409Y00086939*
X00066519Y00087189*
X00066549Y00087449*
X00066519Y00087709*
X00066409Y00087949*
X00066249Y00088159*
X00066199Y00088209*
X00066239Y00088329*
X00067379*
X00067419Y00088209*
X00067359Y00088159*
X00067199Y00087949*
X00067099Y00087709*
X00067069Y00087449*
X00067099Y00087189*
X00067199Y00086939*
X00067299Y00086809*
X00067249Y00086689*
X00066929*
X00066809Y00086669*
X00066789Y00086659*
X00066659Y00086579*
X00065919Y00085839*
X00065799Y00085889*
X00065539Y00085919*
X00065279Y00085889*
X00065029Y00085779*
X00064819Y00085619*
X00064659Y00085409*
X00064559Y00085169*
X00064529Y00084909*
X00064559Y00084649*
X00064659Y00084399*
X00064819Y00084189*
X00065029Y00084029*
X00065279Y00083929*
X00065539Y00083899*
X00065799Y00083929*
X00066039Y00084029*
X00066249Y00084189*
X00066409Y00084399*
X00066519Y00084649*
X00066549Y00084909*
X00066519Y00085169*
X00066469Y00085289*
X00067099Y00085919*
X00067559*
X00067589Y00085789*
X00067569Y00085779*
X00067359Y00085619*
X00067199Y00085409*
X00067099Y00085169*
X00067069Y00084909*
X00067099Y00084649*
X00067199Y00084399*
X00067359Y00084189*
X00067419Y00084149*
X00067379Y00084029*
X00066809*
X00066659Y00083999*
X00066529Y00083909*
X00065919Y00083299*
X00065799Y00083349*
X00065539Y00083379*
X00065279Y00083349*
X00065029Y00083239*
X00064819Y00083079*
X00064659Y00082869*
X00064559Y00082629*
X00064529Y00082369*
X00064559Y00082109*
X00064659Y00081859*
X00064819Y00081649*
X00065029Y00081489*
X00065049Y00081479*
X00065019Y00081359*
X00064519*
X00064369Y00081329*
X00064249Y00081249*
X00063099Y00080099*
X00063019Y00079979*
X00062989Y00079829*
Y00068419*
X00063019Y00068269*
X00063099Y00068149*
X00064249Y00067009*
X00064369Y00066919*
X00064519Y00066889*
X00081959*
X00082109Y00066919*
X00082239Y00067009*
X00083959Y00068729*
X00083969*
X00084089Y00068809*
X00084229Y00068949*
X00084539*
X00084569Y00068889*
X00084709Y00068709*
X00084899Y00068569*
X00085109Y00068479*
X00085339Y00068449*
X00085579Y00068479*
X00085789Y00068569*
X00085979Y00068709*
X00086119Y00068889*
X00086209Y00069109*
X00086239Y00069339*
X00086209Y00069569*
X00086119Y00069789*
X00085979Y00069979*
X00085789Y00070119*
X00085669Y00070169*
X00085689Y00070299*
X00086649*
X00086659Y00070279*
X00086689Y00070049*
X00086779Y00069829*
X00086929Y00069639*
X00087109Y00069499*
X00087329Y00069409*
X00087559Y00069379*
X00087789Y00069409*
X00088009Y00069499*
X00088189Y00069639*
X00088339Y00069829*
X00088429Y00070049*
X00088459Y00070279*
X00088439Y00070379*
X00088529Y00070479*
X00090339*
X00090379Y00070359*
X00090299Y00070299*
X00090159Y00070119*
X00090069Y00069899*
X00090039Y00069669*
X00090069Y00069439*
X00090159Y00069219*
X00090299Y00069029*
X00090489Y00068889*
X00090549Y00068869*
Y00066529*
X00089179Y00065149*
X00064589*
X00064539Y00065289*
X00064389Y00065479*
X00064209Y00065619*
X00063989Y00065709*
X00063759Y00065739*
X00063529Y00065709*
X00063309Y00065619*
X00063129Y00065479*
X00062979Y00065289*
X00062889Y00065069*
X00062859Y00064839*
X00062889Y00064609*
X00062979Y00064389*
X00063129Y00064209*
X00063309Y00064069*
X00063529Y00063979*
X00063759Y00063949*
X00063989Y00063979*
X00064209Y00064069*
X00064389Y00064209*
X00064519Y00064379*
X00089339*
X00089489Y00064409*
X00089609Y00064489*
X00091209Y00066089*
X00091299Y00066219*
X00091329Y00066369*
Y00068869*
X00091389Y00068889*
X00091569Y00069029*
X00091679Y00069179*
X00091809Y00069189*
X00092179Y00068809*
X00092309Y00068729*
X00092459Y00068699*
X00105249*
X00106409Y00067539*
X00106529Y00067459*
X00106679Y00067429*
X00107399*
X00107429Y00067369*
X00107569Y00067179*
X00107759Y00067039*
X00107969Y00066949*
X00108199Y00066919*
X00108439Y00066949*
X00108649Y00067039*
X00108839Y00067179*
X00108979Y00067369*
X00109069Y00067589*
X00109099Y00067819*
X00109069Y00068049*
X00108979Y00068269*
X00108839Y00068449*
X00108649Y00068589*
X00108439Y00068679*
X00108199Y00068709*
X00107969Y00068679*
X00107759Y00068589*
X00107569Y00068449*
X00107429Y00068269*
X00107399Y00068209*
X00106839*
X00105959Y00069089*
X00105979Y00069139*
X00106099Y00069169*
X00106229Y00069069*
X00106449Y00068979*
X00106679Y00068949*
X00106909Y00068979*
X00107129Y00069069*
X00107309Y00069219*
X00107459Y00069399*
X00107549Y00069619*
X00107579Y00069849*
X00107549Y00070079*
X00107459Y00070299*
X00107309Y00070479*
X00107129Y00070629*
X00106909Y00070719*
X00106679Y00070749*
X00106449Y00070719*
X00106229Y00070629*
X00106049Y00070479*
X00105899Y00070299*
X00105809Y00070079*
X00105799Y00069979*
X00096349*
X00096309Y00070099*
X00096479Y00070279*
X00096539Y00070249*
X00096769Y00070219*
X00097009Y00070249*
X00097219Y00070339*
X00097409Y00070489*
X00097549Y00070669*
X00097639Y00070889*
X00097669Y00071119*
X00097639Y00071349*
X00097549Y00071569*
X00097409Y00071749*
X00097219Y00071899*
X00097009Y00071989*
X00096769Y00072019*
X00096539Y00071989*
X00096329Y00071899*
X00096139Y00071749*
X00095999Y00071569*
X00095909Y00071349*
X00095879Y00071119*
X00095909Y00070889*
X00095929Y00070829*
X00095599Y00070489*
X00093889*
X00092479Y00071899*
X00092349Y00071989*
X00092199Y00072019*
X00083409*
X00083389Y00072139*
X00083509Y00072189*
X00083699Y00072339*
X00083839Y00072519*
X00083929Y00072739*
X00083959Y00072969*
X00083929Y00073199*
X00083839Y00073419*
X00083699Y00073599*
X00083509Y00073749*
X00083449Y00073769*
Y00075859*
X00083979Y00076379*
X00084139Y00076259*
X00084359Y00076169*
X00084589Y00076139*
X00084819Y00076169*
X00085039Y00076259*
X00085219Y00076399*
X00085359Y00076589*
X00085449Y00076799*
X00085479Y00077029*
X00085449Y00077269*
X00085359Y00077479*
X00085219Y00077669*
X00085039Y00077809*
X00084819Y00077899*
X00084589Y00077929*
X00084359Y00077899*
X00084139Y00077809*
X00083949Y00077669*
X00083809Y00077479*
X00083719Y00077269*
Y00077219*
X00082789Y00076289*
X00082709Y00076169*
X00082679Y00076019*
Y00073769*
X00082619Y00073749*
X00082429Y00073599*
X00082299Y00073439*
X00082179Y00073479*
Y00080839*
X00082149Y00080989*
X00082069Y00081119*
X00081559Y00081629*
X00081429Y00081709*
X00081289Y00081739*
X00080709*
X00080669Y00081859*
X00080729Y00081909*
X00080889Y00082119*
X00080989Y00082359*
X00081009Y00082489*
X00080019*
Y00082749*
X00081009*
X00080989Y00082879*
X00080889Y00083129*
X00080729Y00083339*
X00080519Y00083499*
X00080509Y00083509*
X00080529Y00083629*
X00081159*
X00081309Y00083659*
X00081429Y00083739*
X00085589Y00087899*
X00087529*
X00087619Y00087689*
X00087759Y00087499*
X00087939Y00087359*
X00088159Y00087269*
X00088389Y00087239*
X00088619Y00087269*
X00088839Y00087359*
X00089029Y00087499*
X00089169Y00087689*
X00089259Y00087909*
X00089289Y00088139*
X00089259Y00088369*
X00089169Y00088589*
X00089029Y00088769*
X00088839Y00088909*
X00088619Y00088999*
X00088389Y00089029*
X00088159Y00088999*
X00087939Y00088909*
X00087759Y00088769*
X00087679Y00088669*
X00085429*
X00085279Y00088649*
X00085149Y00088559*
X00080999Y00084409*
X00080849*
X00080789Y00084519*
X00080889Y00084659*
X00080989Y00084899*
X00081009Y00085029*
X00079019*
X00079039Y00084899*
X00079139Y00084659*
X00079239Y00084519*
X00079189Y00084409*
X00078309*
X00078249Y00084519*
X00078349Y00084659*
X00078449Y00084899*
X00078489Y00085159*
X00078449Y00085419*
X00078349Y00085669*
X00078189Y00085879*
X00077979Y00086039*
X00077739Y00086139*
X00077479Y00086169*
X00077209Y00086139*
X00076969Y00086039*
X00076759Y00085879*
X00076599Y00085669*
X00076499Y00085419*
X00076459Y00085159*
X00076499Y00084899*
X00076599Y00084659*
X00076749Y00084459*
X00076729Y00084339*
X00076669Y00084289*
X00075039Y00082669*
X00074959Y00082539*
X00074929Y00082399*
Y00081669*
X00069329*
X00069009Y00081989*
X00069059Y00082109*
X00069089Y00082369*
X00069059Y00082629*
X00068949Y00082869*
X00068789Y00083079*
X00068739Y00083129*
X00068779Y00083249*
X00071889*
X00072039Y00083279*
X00072159Y00083359*
X00073939Y00085139*
X00073989Y00085109*
X00074809*
Y00085929*
X00074779Y00085979*
X00076109Y00087309*
X00076469*
Y00086699*
X00078479*
Y00088709*
X00078439Y00088809*
X00078969Y00089349*
X00087959*
X00088099Y00089379*
X00088229Y00089459*
X00089939Y00091169*
X00090019Y00091289*
X00090029Y00091319*
X00090039Y00091399*
X00090109Y00091429*
X00090179Y00091479*
X00090289Y00091419*
Y00085059*
X00088629Y00083399*
X00088539Y00083269*
X00088509Y00083119*
Y00080459*
X00088539Y00080309*
X00088629Y00080189*
X00088999Y00079809*
X00089129Y00079719*
X00089279Y00079689*
X00089879*
X00089909Y00079629*
X00090049Y00079449*
X00090239Y00079309*
X00090449Y00079219*
X00090679Y00079189*
X00090919Y00079219*
X00091129Y00079309*
X00091319Y00079449*
X00091459Y00079629*
X00091549Y00079849*
X00091579Y00080079*
X00091549Y00080309*
X00091459Y00080529*
X00091319Y00080719*
X00091129Y00080859*
X00090919Y00080949*
X00090679Y00080979*
X00090449Y00080949*
X00090239Y00080859*
X00090049Y00080719*
X00089909Y00080529*
X00089879Y00080469*
X00089439*
X00089289Y00080619*
Y00082119*
X00089409Y00082159*
X00089539Y00081989*
X00089729Y00081849*
X00089939Y00081759*
X00090179Y00081729*
X00090409Y00081759*
X00090619Y00081849*
X00090809Y00081989*
X00090949Y00082169*
X00091039Y00082389*
X00091069Y00082619*
X00091039Y00082849*
X00091019Y00082909*
X00091699Y00083589*
X00091809Y00083539*
Y00082739*
X00091719Y00082729*
X00091509Y00082639*
X00091319Y00082489*
X00091179Y00082309*
X00091089Y00082089*
X00091059Y00081859*
X00091089Y00081629*
X00091179Y00081409*
X00091319Y00081229*
X00091509Y00081079*
X00091719Y00080989*
X00091949Y00080959*
X00092189Y00080989*
X00092399Y00081079*
X00092589Y00081229*
X00092729Y00081409*
X00092819Y00081629*
X00092849Y00081859*
X00092819Y00082089*
X00092729Y00082309*
X00092589Y00082489*
Y00093979*
X00092559Y00094129*
X00092479Y00094249*
X00091059Y00095669*
X00090929Y00095759*
X00090779Y00095789*
X00073939*
X00073929Y00095799*
X00073789Y00095979*
X00073609Y00096119*
X00073389Y00096209*
X00073159Y00096239*
G37*
G36*
X00139199Y00095569D02*
X00138939Y00095539D01*
X00138689Y00095439*
X00138479Y00095279*
X00138319Y00095069*
X00138219Y00094819*
X00138189Y00094559*
X00138219Y00094299*
X00138319Y00094049*
X00138479Y00093839*
X00138689Y00093679*
X00138939Y00093579*
X00139199Y00093549*
X00139459Y00093579*
X00139699Y00093679*
X00139909Y00093839*
X00140069Y00094049*
X00140179Y00094299*
X00140209Y00094559*
X00140179Y00094819*
X00140069Y00095069*
X00139909Y00095279*
X00139699Y00095439*
X00139459Y00095539*
X00139199Y00095569*
G37*
G36*
X00120519Y00092829D02*
X00120419Y00092809D01*
X00120199Y00092719*
X00120019Y00092579*
X00119869Y00092399*
X00119779Y00092179*
X00119769Y00092069*
X00120519*
Y00092829*
G37*
G36*
X00141739Y00093029D02*
X00141479Y00092999D01*
X00141229Y00092899*
X00141019Y00092739*
X00140859Y00092529*
X00140759Y00092279*
X00140729Y00092019*
X00140759Y00091759*
X00140859Y00091509*
X00141019Y00091299*
X00141229Y00091139*
X00141479Y00091039*
X00141739Y00091009*
X00141999Y00091039*
X00142239Y00091139*
X00142449Y00091299*
X00142609Y00091509*
X00142719Y00091759*
X00142749Y00092019*
X00142719Y00092279*
X00142609Y00092529*
X00142449Y00092739*
X00142239Y00092899*
X00141999Y00092999*
X00141739Y00093029*
G37*
G36*
X00139069Y00091889D02*
X00138199D01*
X00138219Y00091759*
X00138319Y00091509*
X00138479Y00091299*
X00138689Y00091139*
X00138939Y00091039*
X00139069Y00091019*
Y00091889*
G37*
G36*
X00140189D02*
X00139319D01*
Y00091019*
X00139459Y00091039*
X00139699Y00091139*
X00139909Y00091299*
X00140069Y00091509*
X00140179Y00091759*
X00140189Y00091889*
G37*
G36*
X00142729Y00089349D02*
X00141859D01*
Y00088479*
X00141999Y00088499*
X00142239Y00088599*
X00142449Y00088759*
X00142609Y00088969*
X00142719Y00089219*
X00142729Y00089349*
G37*
G36*
X00141609Y00090479D02*
X00141479Y00090459D01*
X00141229Y00090359*
X00141019Y00090199*
X00140859Y00089989*
X00140759Y00089739*
X00140739Y00089609*
X00141609*
Y00090479*
G37*
G36*
X00141859D02*
Y00089609D01*
X00142729*
X00142719Y00089739*
X00142609Y00089989*
X00142449Y00090199*
X00142239Y00090359*
X00141999Y00090459*
X00141859Y00090479*
G37*
G36*
X00134689Y00091969D02*
X00133939D01*
Y00091219*
X00134039Y00091229*
X00134259Y00091319*
X00134449Y00091459*
X00134589Y00091649*
X00134679Y00091859*
X00134689Y00091969*
G37*
G36*
X00106359Y00092679D02*
X00105599D01*
X00105619Y00092579*
X00105709Y00092359*
X00105849Y00092169*
X00106029Y00092029*
X00106249Y00091939*
X00106359Y00091929*
Y00092679*
G37*
G36*
X00107359D02*
X00106609D01*
Y00091929*
X00106709Y00091939*
X00106929Y00092029*
X00107119Y00092169*
X00107259Y00092359*
X00107349Y00092579*
X00107359Y00092679*
G37*
G36*
X00120519Y00091819D02*
X00119769D01*
X00119779Y00091719*
X00119869Y00091499*
X00120019Y00091309*
X00120199Y00091169*
X00120419Y00091079*
X00120519Y00091069*
Y00091819*
G37*
G36*
X00121529D02*
X00120779D01*
Y00091069*
X00120879Y00091079*
X00121099Y00091169*
X00121279Y00091309*
X00121429Y00091499*
X00121519Y00091719*
X00121529Y00091819*
G37*
G36*
X00133679Y00091969D02*
X00132929D01*
X00132949Y00091859*
X00133039Y00091649*
X00133179Y00091459*
X00133359Y00091319*
X00133579Y00091229*
X00133679Y00091219*
Y00091969*
G37*
G36*
X00112759Y00101329D02*
X00110759D01*
Y00099329*
X00112759*
Y00101329*
G37*
G36*
X00114169Y00100199D02*
X00113299D01*
X00113319Y00100069*
X00113419Y00099819*
X00113579Y00099609*
X00113789Y00099449*
X00114039Y00099349*
X00114169Y00099329*
Y00100199*
G37*
G36*
X00115299D02*
X00114429D01*
Y00099329*
X00114559Y00099349*
X00114809Y00099449*
X00115019Y00099609*
X00115179Y00099819*
X00115279Y00100069*
X00115299Y00100199*
G37*
G36*
X00063469Y00099949D02*
X00061339D01*
Y00097819*
X00061659Y00097849*
X00062079Y00097979*
X00062469Y00098189*
X00062819Y00098469*
X00063099Y00098819*
X00063309Y00099209*
X00063439Y00099629*
X00063469Y00099949*
G37*
G36*
X00132709Y00100199D02*
X00130589D01*
X00130619Y00099889*
X00130749Y00099459*
X00130959Y00099069*
X00131239Y00098729*
X00131579Y00098449*
X00131979Y00098239*
X00132399Y00098109*
X00132709Y00098079*
Y00100199*
G37*
G36*
X00135089D02*
X00132969D01*
Y00098079*
X00133279Y00098109*
X00133709Y00098239*
X00134099Y00098449*
X00134439Y00098729*
X00134729Y00099069*
X00134929Y00099459*
X00135059Y00099889*
X00135089Y00100199*
G37*
G36*
X00114429Y00101329D02*
Y00100459D01*
X00115299*
X00115279Y00100589*
X00115179Y00100839*
X00115019Y00101049*
X00114809Y00101209*
X00114559Y00101309*
X00114429Y00101329*
G37*
G36*
X00132709Y00102579D02*
X00132399Y00102549D01*
X00131979Y00102419*
X00131579Y00102209*
X00131239Y00101929*
X00130959Y00101589*
X00130749Y00101199*
X00130619Y00100769*
X00130589Y00100459*
X00132709*
Y00102579*
G37*
G36*
X00132969D02*
Y00100459D01*
X00135089*
X00135059Y00100769*
X00134929Y00101199*
X00134729Y00101589*
X00134439Y00101929*
X00134099Y00102209*
X00133709Y00102419*
X00133279Y00102549*
X00132969Y00102579*
G37*
G36*
X00061089Y00102329D02*
X00060769Y00102299D01*
X00060349Y00102169*
X00059959Y00101959*
X00059609Y00101679*
X00059329Y00101329*
X00059119Y00100939*
X00058989Y00100519*
X00058959Y00100199*
X00061089*
Y00102329*
G37*
G36*
X00061339D02*
Y00100199D01*
X00063469*
X00063439Y00100519*
X00063309Y00100939*
X00063099Y00101329*
X00062819Y00101679*
X00062469Y00101959*
X00062079Y00102169*
X00061659Y00102299*
X00061339Y00102329*
G37*
G36*
X00114169Y00101329D02*
X00114039Y00101309D01*
X00113789Y00101209*
X00113579Y00101049*
X00113419Y00100839*
X00113319Y00100589*
X00113299Y00100459*
X00114169*
Y00101329*
G37*
G36*
X00061089Y00099949D02*
X00058959D01*
X00058989Y00099629*
X00059119Y00099209*
X00059329Y00098819*
X00059609Y00098469*
X00059959Y00098189*
X00060349Y00097979*
X00060769Y00097849*
X00061089Y00097819*
Y00099949*
G37*
G36*
X00120519Y00096139D02*
X00119769D01*
X00119779Y00096029*
X00119869Y00095819*
X00120019Y00095629*
X00120199Y00095489*
X00120419Y00095399*
X00120519Y00095389*
Y00096139*
G37*
G36*
X00121529D02*
X00120779D01*
Y00095389*
X00120879Y00095399*
X00121099Y00095489*
X00121279Y00095629*
X00121429Y00095819*
X00121519Y00096029*
X00121529Y00096139*
G37*
G36*
X00064899Y00096639D02*
X00064789Y00096619D01*
X00064579Y00096529*
X00064389Y00096389*
X00064249Y00096209*
X00064159Y00095989*
X00064139Y00095889*
X00064899*
Y00096639*
G37*
G36*
X00141859Y00095559D02*
Y00094689D01*
X00142729*
X00142719Y00094819*
X00142609Y00095069*
X00142449Y00095279*
X00142239Y00095439*
X00141999Y00095539*
X00141859Y00095559*
G37*
G36*
X00064899Y00095629D02*
X00064139D01*
X00064159Y00095529*
X00064249Y00095309*
X00064389Y00095119*
X00064579Y00094979*
X00064789Y00094889*
X00064899Y00094879*
Y00095629*
G37*
G36*
X00065899D02*
X00065149D01*
Y00094879*
X00065259Y00094889*
X00065469Y00094979*
X00065659Y00095119*
X00065799Y00095309*
X00065889Y00095529*
X00065899Y00095629*
G37*
G36*
X00120519Y00097149D02*
X00120419Y00097129D01*
X00120199Y00097039*
X00120019Y00096899*
X00119869Y00096709*
X00119779Y00096499*
X00119769Y00096389*
X00120519*
Y00097149*
G37*
G36*
X00120779D02*
Y00096389D01*
X00121529*
X00121519Y00096499*
X00121429Y00096709*
X00121279Y00096899*
X00121099Y00097039*
X00120879Y00097129*
X00120779Y00097149*
G37*
G36*
X00119379Y00101339D02*
X00119119Y00101309D01*
X00118869Y00101209*
X00118659Y00101049*
X00118499Y00100839*
X00118399Y00100589*
X00118369Y00100329*
X00118399Y00100069*
X00118499Y00099819*
X00118659Y00099609*
X00118869Y00099449*
X00118989Y00099399*
Y00098969*
X00117329Y00097309*
X00117219Y00097369*
X00117229Y00097399*
Y00099399*
X00117349Y00099449*
X00117559Y00099609*
X00117719Y00099819*
X00117819Y00100069*
X00117849Y00100329*
X00117819Y00100589*
X00117719Y00100839*
X00117559Y00101049*
X00117349Y00101209*
X00117099Y00101309*
X00116839Y00101339*
X00116579Y00101309*
X00116329Y00101209*
X00116119Y00101049*
X00115959Y00100839*
X00115859Y00100589*
X00115829Y00100329*
X00115859Y00100069*
X00115959Y00099819*
X00116119Y00099609*
X00116329Y00099449*
X00116449Y00099399*
Y00097559*
X00110329Y00091439*
X00106839*
X00106689Y00091409*
X00106569Y00091329*
X00104879Y00089639*
X00104799Y00089519*
X00104769Y00089369*
Y00085249*
X00104629Y00085109*
X00104539Y00084979*
X00104509Y00084839*
Y00084109*
X00104449Y00084089*
X00104269Y00083949*
X00104129Y00083759*
X00104039Y00083539*
X00104009Y00083309*
X00104039Y00083079*
X00104129Y00082859*
X00104269Y00082679*
X00104449Y00082539*
X00104669Y00082449*
X00104899Y00082419*
X00105129Y00082449*
X00105349Y00082539*
X00105419Y00082589*
X00105529Y00082529*
Y00081439*
X00105449Y00081359*
X00105389Y00081379*
X00105159Y00081409*
X00104919Y00081379*
X00104709Y00081289*
X00104519Y00081149*
X00104379Y00080969*
X00104289Y00080749*
X00104259Y00080519*
X00104289Y00080289*
X00104379Y00080069*
X00104519Y00079879*
X00104709Y00079739*
X00104919Y00079649*
X00105159Y00079619*
X00105389Y00079649*
X00105599Y00079739*
X00105789Y00079879*
X00105929Y00080069*
X00106019Y00080289*
X00106049Y00080519*
X00106019Y00080749*
X00105999Y00080809*
X00106189Y00081009*
X00106279Y00081129*
X00106309Y00081279*
Y00088739*
X00107599Y00090039*
X00110999*
X00111149Y00090069*
X00111269Y00090149*
X00119649Y00098529*
X00119739Y00098659*
X00119769Y00098809*
Y00099399*
X00119889Y00099449*
X00120099Y00099609*
X00120259Y00099819*
X00120359Y00100069*
X00120389Y00100329*
X00120359Y00100589*
X00120259Y00100839*
X00120099Y00101049*
X00119889Y00101209*
X00119639Y00101309*
X00119379Y00101339*
G37*
G36*
X00065149Y00096639D02*
Y00095889D01*
X00065899*
X00065889Y00095989*
X00065799Y00096209*
X00065659Y00096389*
X00065469Y00096529*
X00065259Y00096619*
X00065149Y00096639*
G37*
G36*
X00141739Y00098109D02*
X00141479Y00098079D01*
X00141229Y00097979*
X00141019Y00097819*
X00140859Y00097609*
X00140759Y00097359*
X00140729Y00097099*
X00140759Y00096839*
X00140859Y00096589*
X00141019Y00096379*
X00141229Y00096219*
X00141479Y00096119*
X00141739Y00096089*
X00141999Y00096119*
X00142239Y00096219*
X00142449Y00096379*
X00142609Y00096589*
X00142719Y00096839*
X00142749Y00097099*
X00142719Y00097359*
X00142609Y00097609*
X00142449Y00097819*
X00142239Y00097979*
X00141999Y00098079*
X00141739Y00098109*
G37*
G36*
X00140199Y00098099D02*
X00138189D01*
Y00096099*
X00140199*
Y00098099*
G37*
G36*
X00141609Y00089349D02*
X00140739D01*
X00140759Y00089219*
X00140859Y00088969*
X00141019Y00088759*
X00141229Y00088599*
X00141479Y00088499*
X00141609Y00088479*
Y00089349*
G37*
G36*
X00109339Y00078609D02*
X00108579D01*
Y00077859*
X00108689Y00077869*
X00108909Y00077959*
X00109089Y00078109*
X00109229Y00078289*
X00109319Y00078509*
X00109339Y00078609*
G37*
G36*
X00139199Y00080329D02*
X00138939Y00080299D01*
X00138689Y00080199*
X00138479Y00080039*
X00138319Y00079829*
X00138219Y00079579*
X00138189Y00079319*
X00138219Y00079059*
X00138319Y00078809*
X00138479Y00078599*
X00138689Y00078439*
X00138939Y00078339*
X00139199Y00078309*
X00139459Y00078339*
X00139699Y00078439*
X00139909Y00078599*
X00140069Y00078809*
X00140179Y00079059*
X00140209Y00079319*
X00140179Y00079579*
X00140069Y00079829*
X00139909Y00080039*
X00139699Y00080199*
X00139459Y00080299*
X00139199Y00080329*
G37*
G36*
X00141739D02*
X00141479Y00080299D01*
X00141229Y00080199*
X00141019Y00080039*
X00140859Y00079829*
X00140759Y00079579*
X00140729Y00079319*
X00140759Y00079059*
X00140859Y00078809*
X00141019Y00078599*
X00141229Y00078439*
X00141479Y00078339*
X00141739Y00078309*
X00141999Y00078339*
X00142239Y00078439*
X00142449Y00078599*
X00142609Y00078809*
X00142719Y00079059*
X00142749Y00079319*
X00142719Y00079579*
X00142609Y00079829*
X00142449Y00080039*
X00142239Y00080199*
X00141999Y00080299*
X00141739Y00080329*
G37*
G36*
X00117209Y00035429D02*
X00116459D01*
Y00034679*
X00116559Y00034689*
X00116779Y00034779*
X00116969Y00034929*
X00117109Y00035109*
X00117199Y00035329*
X00117209Y00035429*
G37*
G36*
X00116209D02*
X00115449D01*
X00115469Y00035329*
X00115559Y00035109*
X00115699Y00034929*
X00115879Y00034779*
X00116099Y00034689*
X00116209Y00034679*
Y00035429*
G37*
G36*
X00108329Y00078609D02*
X00107579D01*
X00107589Y00078509*
X00107679Y00078289*
X00107819Y00078109*
X00108009Y00077959*
X00108229Y00077869*
X00108329Y00077859*
Y00078609*
G37*
G36*
X00108579Y00079619D02*
Y00078869D01*
X00109339*
X00109319Y00078969*
X00109229Y00079189*
X00109089Y00079369*
X00108909Y00079519*
X00108689Y00079609*
X00108579Y00079619*
G37*
G36*
X00063209Y00036699D02*
X00061089D01*
Y00034579*
X00061399Y00034609*
X00061829Y00034739*
X00062219Y00034949*
X00062559Y00035229*
X00062839Y00035569*
X00063049Y00035959*
X00063179Y00036389*
X00063209Y00036699*
G37*
G36*
X00060829D02*
X00058709D01*
X00058739Y00036389*
X00058869Y00035959*
X00059079Y00035569*
X00059359Y00035229*
X00059699Y00034949*
X00060089Y00034739*
X00060519Y00034609*
X00060829Y00034579*
Y00036699*
G37*
G36*
X00107809Y00035429D02*
X00107059D01*
Y00034679*
X00107169Y00034689*
X00107379Y00034779*
X00107569Y00034929*
X00107709Y00035109*
X00107799Y00035329*
X00107809Y00035429*
G37*
G36*
X00106809D02*
X00106049D01*
X00106069Y00035329*
X00106159Y00035109*
X00106299Y00034929*
X00106489Y00034779*
X00106699Y00034689*
X00106809Y00034679*
Y00035429*
G37*
G36*
X00108329Y00079619D02*
X00108229Y00079609D01*
X00108009Y00079519*
X00107819Y00079369*
X00107679Y00079189*
X00107589Y00078969*
X00107579Y00078869*
X00108329*
Y00079619*
G37*
G36*
X00142729Y00076649D02*
X00141859D01*
Y00075779*
X00141999Y00075799*
X00142239Y00075899*
X00142449Y00076059*
X00142609Y00076269*
X00142719Y00076519*
X00142729Y00076649*
G37*
G36*
X00107059Y00036439D02*
Y00035689D01*
X00107809*
X00107799Y00035789*
X00107709Y00036009*
X00107569Y00036189*
X00107379Y00036339*
X00107169Y00036429*
X00107059Y00036439*
G37*
G36*
X00106809D02*
X00106699Y00036429D01*
X00106489Y00036339*
X00106299Y00036189*
X00106159Y00036009*
X00106069Y00035789*
X00106049Y00035689*
X00106809*
Y00036439*
G37*
G36*
X00139069Y00076649D02*
X00138199D01*
X00138219Y00076519*
X00138319Y00076269*
X00138479Y00076059*
X00138689Y00075899*
X00138939Y00075799*
X00139069Y00075779*
Y00076649*
G37*
G36*
X00140189D02*
X00139319D01*
Y00075779*
X00139459Y00075799*
X00139699Y00075899*
X00139909Y00076059*
X00140069Y00076269*
X00140179Y00076519*
X00140189Y00076649*
G37*
G36*
X00141609D02*
X00140739D01*
X00140759Y00076519*
X00140859Y00076269*
X00141019Y00076059*
X00141229Y00075899*
X00141479Y00075799*
X00141609Y00075779*
Y00076649*
G37*
G36*
X00141859Y00077779D02*
Y00076909D01*
X00142729*
X00142719Y00077039*
X00142609Y00077289*
X00142449Y00077499*
X00142239Y00077659*
X00141999Y00077759*
X00141859Y00077779*
G37*
G36*
X00142969Y00036959D02*
X00140839D01*
Y00034829*
X00141159Y00034859*
X00141579Y00034989*
X00141969Y00035199*
X00142319Y00035479*
X00142599Y00035829*
X00142809Y00036219*
X00142939Y00036639*
X00142969Y00036959*
G37*
G36*
X00140589D02*
X00138459D01*
X00138489Y00036639*
X00138619Y00036219*
X00138829Y00035829*
X00139109Y00035479*
X00139459Y00035199*
X00139849Y00034989*
X00140269Y00034859*
X00140589Y00034829*
Y00036959*
G37*
G36*
X00139069Y00077779D02*
X00138939Y00077759D01*
X00138689Y00077659*
X00138479Y00077499*
X00138319Y00077289*
X00138219Y00077039*
X00138199Y00076909*
X00139069*
Y00077779*
G37*
G36*
X00139319D02*
Y00076909D01*
X00140189*
X00140179Y00077039*
X00140069Y00077289*
X00139909Y00077499*
X00139699Y00077659*
X00139459Y00077759*
X00139319Y00077779*
G37*
G36*
X00141609D02*
X00141479Y00077759D01*
X00141229Y00077659*
X00141019Y00077499*
X00140859Y00077289*
X00140759Y00077039*
X00140739Y00076909*
X00141609*
Y00077779*
G37*
G36*
X00099439Y00081149D02*
X00098689D01*
X00098699Y00081049*
X00098789Y00080829*
X00098929Y00080649*
X00099119Y00080499*
X00099339Y00080409*
X00099439Y00080399*
Y00081149*
G37*
G36*
X00080139Y00086159D02*
Y00085289D01*
X00081009*
X00080989Y00085419*
X00080889Y00085669*
X00080729Y00085879*
X00080519Y00086039*
X00080279Y00086139*
X00080139Y00086159*
G37*
G36*
X00139199Y00087949D02*
X00138939Y00087919D01*
X00138689Y00087819*
X00138479Y00087659*
X00138319Y00087449*
X00138219Y00087199*
X00138189Y00086939*
X00138219Y00086679*
X00138319Y00086429*
X00138479Y00086219*
X00138689Y00086059*
X00138939Y00085959*
X00139199Y00085929*
X00139459Y00085959*
X00139699Y00086059*
X00139909Y00086219*
X00140069Y00086429*
X00140179Y00086679*
X00140209Y00086939*
X00140179Y00087199*
X00140069Y00087449*
X00139909Y00087659*
X00139699Y00087819*
X00139459Y00087919*
X00139199Y00087949*
G37*
G36*
X00141609Y00086809D02*
X00140739D01*
X00140759Y00086679*
X00140859Y00086429*
X00141019Y00086219*
X00141229Y00086059*
X00141479Y00085959*
X00141609Y00085939*
Y00086809*
G37*
G36*
X00075819Y00084859D02*
X00075059D01*
Y00084099*
X00075169Y00084119*
X00075379Y00084209*
X00075569Y00084349*
X00075709Y00084539*
X00075799Y00084749*
X00075819Y00084859*
G37*
G36*
X00075059Y00085859D02*
Y00085109D01*
X00075819*
X00075799Y00085219*
X00075709Y00085429*
X00075569Y00085619*
X00075379Y00085759*
X00075169Y00085849*
X00075059Y00085859*
G37*
G36*
X00079889Y00086159D02*
X00079749Y00086139D01*
X00079509Y00086039*
X00079299Y00085879*
X00079139Y00085669*
X00079039Y00085419*
X00079019Y00085289*
X00079889*
Y00086159*
G37*
G36*
X00141609Y00087939D02*
X00141479Y00087919D01*
X00141229Y00087819*
X00141019Y00087659*
X00140859Y00087449*
X00140759Y00087199*
X00140739Y00087069*
X00141609*
Y00087939*
G37*
G36*
X00141859D02*
Y00087069D01*
X00142729*
X00142719Y00087199*
X00142609Y00087449*
X00142449Y00087659*
X00142239Y00087819*
X00141999Y00087919*
X00141859Y00087939*
G37*
G36*
X00139199Y00090489D02*
X00138939Y00090459D01*
X00138689Y00090359*
X00138479Y00090199*
X00138319Y00089989*
X00138219Y00089739*
X00138189Y00089479*
X00138219Y00089219*
X00138319Y00088969*
X00138479Y00088759*
X00138689Y00088599*
X00138939Y00088499*
X00139199Y00088469*
X00139459Y00088499*
X00139699Y00088599*
X00139909Y00088759*
X00140069Y00088969*
X00140179Y00089219*
X00140209Y00089479*
X00140179Y00089739*
X00140069Y00089989*
X00139909Y00090199*
X00139699Y00090359*
X00139459Y00090459*
X00139199Y00090489*
G37*
G36*
X00142729Y00086809D02*
X00141859D01*
Y00085939*
X00141999Y00085959*
X00142239Y00086059*
X00142449Y00086219*
X00142609Y00086429*
X00142719Y00086679*
X00142729Y00086809*
G37*
G36*
X00080019Y00088709D02*
X00079749Y00088679D01*
X00079509Y00088579*
X00079299Y00088419*
X00079139Y00088209*
X00079039Y00087959*
X00078999Y00087699*
X00079039Y00087439*
X00079139Y00087199*
X00079299Y00086989*
X00079509Y00086819*
X00079749Y00086719*
X00080019Y00086689*
X00080279Y00086719*
X00080519Y00086819*
X00080729Y00086989*
X00080889Y00087199*
X00080989Y00087439*
X00081029Y00087699*
X00080989Y00087959*
X00080889Y00088209*
X00080729Y00088419*
X00080519Y00088579*
X00080279Y00088679*
X00080019Y00088709*
G37*
G36*
X00103379Y00087509D02*
X00103149Y00087479D01*
X00102929Y00087389*
X00102739Y00087249*
X00102599Y00087059*
X00102549Y00086939*
X00102429*
X00102379Y00087059*
X00102229Y00087249*
X00102049Y00087389*
X00101829Y00087479*
X00101599Y00087509*
X00101369Y00087479*
X00101149Y00087389*
X00100969Y00087249*
X00100819Y00087059*
X00100729Y00086849*
X00100699Y00086609*
X00100729Y00086379*
X00100819Y00086169*
X00100969Y00085979*
X00101149Y00085839*
X00101209Y00085809*
Y00085599*
X00101089Y00085559*
X00100959Y00085719*
X00100779Y00085869*
X00100559Y00085959*
X00100329Y00085989*
X00100099Y00085959*
X00099879Y00085869*
X00099699Y00085719*
X00099549Y00085539*
X00099459Y00085319*
X00099429Y00085089*
X00099459Y00084859*
X00099549Y00084639*
X00099699Y00084459*
X00099879Y00084309*
X00099939Y00084289*
Y00083819*
X00099969Y00083669*
X00100059Y00083549*
X00100959Y00082639*
Y00073409*
X00100989Y00073259*
X00101069Y00073129*
X00102849Y00071349*
X00102979Y00071269*
X00102999Y00071259*
X00103119Y00071239*
X00109569*
X00112899Y00067909*
Y00052829*
X00112929Y00052679*
X00113009Y00052559*
X00116059Y00049509*
X00116179Y00049429*
X00116329Y00049399*
X00128989*
X00129019Y00049339*
X00129159Y00049149*
X00129349Y00049009*
X00129559Y00048919*
X00129789Y00048889*
X00130029Y00048919*
X00130239Y00049009*
X00130429Y00049149*
X00130569Y00049339*
X00130659Y00049549*
X00130689Y00049779*
X00130659Y00050019*
X00130569Y00050229*
X00130429Y00050419*
X00130239Y00050559*
X00130029Y00050649*
X00129789Y00050679*
X00129559Y00050649*
X00129349Y00050559*
X00129159Y00050419*
X00129019Y00050229*
X00128989Y00050169*
X00116489*
X00113669Y00052989*
Y00068069*
X00113639Y00068219*
X00113559Y00068349*
X00109999Y00071899*
X00109879Y00071989*
X00109729Y00072019*
X00103279*
X00101729Y00073569*
Y00082799*
X00101709Y00082929*
X00101699Y00082949*
X00101619Y00083079*
X00100719Y00083979*
Y00084289*
X00100779Y00084309*
X00100959Y00084459*
X00101089Y00084619*
X00101209Y00084579*
Y00084069*
X00101239Y00083929*
X00101329Y00083799*
X00101969Y00083149*
Y00073909*
X00101999Y00073769*
X00102089Y00073639*
X00103359Y00072369*
X00103479Y00072289*
X00103629Y00072259*
X00110329*
X00114169Y00068419*
Y00064259*
X00114199Y00064109*
X00114279Y00063989*
X00120629Y00057639*
X00120759Y00057549*
X00120899Y00057519*
X00126709*
X00126729Y00057459*
X00126869Y00057279*
X00127059Y00057139*
X00127279Y00057049*
X00127509Y00057019*
X00127739Y00057049*
X00127959Y00057139*
X00128139Y00057279*
X00128279Y00057459*
X00128369Y00057679*
X00128399Y00057909*
X00128369Y00058139*
X00128279Y00058359*
X00128139Y00058549*
X00127959Y00058689*
X00127739Y00058779*
X00127509Y00058809*
X00127279Y00058779*
X00127059Y00058689*
X00126869Y00058549*
X00126729Y00058359*
X00126709Y00058299*
X00121059*
X00114939Y00064419*
Y00068579*
X00114909Y00068729*
X00114829Y00068849*
X00110759Y00072919*
X00110639Y00072999*
X00110489Y00073029*
X00103789*
X00102749Y00074069*
Y00083309*
X00102719Y00083459*
X00102639Y00083589*
X00101989Y00084229*
Y00085809*
X00102049Y00085839*
X00102229Y00085979*
X00102379Y00086169*
X00102429Y00086279*
X00102549*
X00102599Y00086169*
X00102739Y00085979*
X00102929Y00085839*
X00102989Y00085809*
Y00074679*
X00103019Y00074529*
X00103099Y00074399*
X00104119Y00073389*
X00104249Y00073299*
X00104269*
X00104389Y00073269*
X00111349*
X00115689Y00068929*
Y00067059*
X00115719Y00066909*
X00115799Y00066779*
X00120059Y00062519*
X00120039Y00062459*
X00120009Y00062229*
X00120039Y00061999*
X00120129Y00061779*
X00120269Y00061599*
X00120459Y00061449*
X00120669Y00061359*
X00120899Y00061329*
X00121139Y00061359*
X00121349Y00061449*
X00121539Y00061599*
X00121679Y00061779*
X00121769Y00061999*
X00121799Y00062229*
X00121769Y00062459*
X00121679Y00062679*
X00121539Y00062859*
X00121349Y00063009*
X00121139Y00063099*
X00120899Y00063129*
X00120669Y00063099*
X00120609Y00063069*
X00116469Y00067219*
Y00069089*
X00116439Y00069209*
Y00069239*
X00116349Y00069359*
X00111779Y00073929*
X00111649Y00074019*
X00111509Y00074049*
X00104549*
X00103769Y00074839*
Y00085809*
X00103829Y00085839*
X00104009Y00085979*
X00104149Y00086169*
X00104239Y00086379*
X00104269Y00086609*
X00104239Y00086849*
X00104149Y00087059*
X00104009Y00087249*
X00103829Y00087389*
X00103609Y00087479*
X00103379Y00087509*
G37*
G36*
X00139199Y00082869D02*
X00138939Y00082839D01*
X00138689Y00082739*
X00138479Y00082579*
X00138319Y00082369*
X00138219Y00082119*
X00138189Y00081859*
X00138219Y00081599*
X00138319Y00081349*
X00138479Y00081139*
X00138689Y00080979*
X00138939Y00080879*
X00139199Y00080849*
X00139459Y00080879*
X00139699Y00080979*
X00139909Y00081139*
X00140069Y00081349*
X00140179Y00081599*
X00140209Y00081859*
X00140179Y00082119*
X00140069Y00082369*
X00139909Y00082579*
X00139699Y00082739*
X00139459Y00082839*
X00139199Y00082869*
G37*
G36*
X00141739D02*
X00141479Y00082839D01*
X00141229Y00082739*
X00141019Y00082579*
X00140859Y00082369*
X00140759Y00082119*
X00140729Y00081859*
X00140759Y00081599*
X00140859Y00081349*
X00141019Y00081139*
X00141229Y00080979*
X00141479Y00080879*
X00141739Y00080849*
X00141999Y00080879*
X00142239Y00080979*
X00142449Y00081139*
X00142609Y00081349*
X00142719Y00081599*
X00142749Y00081859*
X00142719Y00082119*
X00142609Y00082369*
X00142449Y00082579*
X00142239Y00082739*
X00141999Y00082839*
X00141739Y00082869*
G37*
G36*
X00099439Y00082159D02*
X00099339Y00082149D01*
X00099119Y00082059*
X00098929Y00081909*
X00098789Y00081729*
X00098699Y00081509*
X00098689Y00081409*
X00099439*
Y00082159*
G37*
G36*
X00100449Y00081149D02*
X00099689D01*
Y00080399*
X00099799Y00080409*
X00100019Y00080499*
X00100199Y00080649*
X00100339Y00080829*
X00100429Y00081049*
X00100449Y00081149*
G37*
G36*
X00084969Y00081559D02*
X00084219D01*
X00084229Y00081449*
X00084319Y00081229*
X00084459Y00081049*
X00084649Y00080909*
X00084859Y00080819*
X00084969Y00080799*
Y00081559*
G37*
G36*
X00085979D02*
X00085219D01*
Y00080799*
X00085329Y00080819*
X00085539Y00080909*
X00085729Y00081049*
X00085869Y00081229*
X00085959Y00081449*
X00085979Y00081559*
G37*
G36*
X00139199Y00085409D02*
X00138939Y00085379D01*
X00138689Y00085279*
X00138479Y00085119*
X00138319Y00084909*
X00138219Y00084659*
X00138189Y00084399*
X00138219Y00084139*
X00138319Y00083889*
X00138479Y00083679*
X00138689Y00083519*
X00138939Y00083419*
X00139199Y00083389*
X00139459Y00083419*
X00139699Y00083519*
X00139909Y00083679*
X00140069Y00083889*
X00140179Y00084139*
X00140209Y00084399*
X00140179Y00084659*
X00140069Y00084909*
X00139909Y00085119*
X00139699Y00085279*
X00139459Y00085379*
X00139199Y00085409*
G37*
G36*
X00141739D02*
X00141479Y00085379D01*
X00141229Y00085279*
X00141019Y00085119*
X00140859Y00084909*
X00140759Y00084659*
X00140729Y00084399*
X00140759Y00084139*
X00140859Y00083889*
X00141019Y00083679*
X00141229Y00083519*
X00141479Y00083419*
X00141739Y00083389*
X00141999Y00083419*
X00142239Y00083519*
X00142449Y00083679*
X00142609Y00083889*
X00142719Y00084139*
X00142749Y00084399*
X00142719Y00084659*
X00142609Y00084909*
X00142449Y00085119*
X00142239Y00085279*
X00141999Y00085379*
X00141739Y00085409*
G37*
G36*
X00074809Y00084859D02*
X00074059D01*
X00074069Y00084749*
X00074159Y00084539*
X00074299Y00084349*
X00074489Y00084209*
X00074699Y00084119*
X00074809Y00084099*
Y00084859*
G37*
G36*
X00085219Y00082559D02*
Y00081809D01*
X00085979*
X00085959Y00081909*
X00085869Y00082129*
X00085729Y00082319*
X00085539Y00082459*
X00085329Y00082549*
X00085219Y00082559*
G37*
G36*
X00099689Y00082159D02*
Y00081409D01*
X00100449*
X00100429Y00081509*
X00100339Y00081729*
X00100199Y00081909*
X00100019Y00082059*
X00099799Y00082149*
X00099689Y00082159*
G37*
G36*
X00084969Y00082559D02*
X00084859Y00082549D01*
X00084649Y00082459*
X00084459Y00082319*
X00084319Y00082129*
X00084229Y00081909*
X00084219Y00081809*
X00084969*
Y00082559*
G37*
%LNmain_board_pcb-3*%
%LPD*%
G36*
X00067419Y00083129D02*
X00067359Y00083079D01*
X00067199Y00082869*
X00067099Y00082629*
X00067069Y00082369*
X00067099Y00082109*
X00067199Y00081859*
X00067359Y00081649*
X00067569Y00081489*
X00067819Y00081389*
X00068079Y00081359*
X00068339Y00081389*
X00068459Y00081439*
X00068889Y00081009*
X00069019Y00080919*
X00069169Y00080889*
X00074929*
Y00078679*
X00074959Y00078539*
X00075039Y00078409*
X00076189Y00077269*
X00076309Y00077179*
X00076459Y00077149*
X00076549*
X00076599Y00077039*
X00076759Y00076829*
X00076969Y00076659*
X00077209Y00076559*
X00077479Y00076529*
X00077739Y00076559*
X00077979Y00076659*
X00078189Y00076829*
X00078349Y00077039*
X00078449Y00077279*
X00078489Y00077539*
X00078449Y00077799*
X00078349Y00078049*
X00078189Y00078259*
X00077979Y00078419*
X00077739Y00078519*
X00077479Y00078549*
X00077209Y00078519*
X00076969Y00078419*
X00076759Y00078259*
X00076619Y00078069*
X00076489Y00078059*
X00075709Y00078849*
Y00081279*
Y00082229*
X00076379Y00082909*
X00076489Y00082849*
X00076459Y00082619*
X00076499Y00082359*
X00076599Y00082119*
X00076759Y00081909*
X00076969Y00081739*
X00077209Y00081639*
X00077479Y00081609*
X00077739Y00081639*
X00077859Y00081689*
X00078469Y00081079*
X00078599Y00080989*
X00078749Y00080959*
X00079319*
X00079359Y00080839*
X00079299Y00080799*
X00079139Y00080589*
X00079039Y00080339*
X00079019Y00080209*
X00081009*
X00080989Y00080339*
X00080889Y00080589*
X00080729Y00080799*
X00080669Y00080839*
X00080709Y00080959*
X00081129*
X00081409Y00080679*
Y00072139*
X00081439Y00071989*
X00081519Y00071859*
X00082029Y00071349*
X00082149Y00071269*
X00082299Y00071239*
X00087229*
X00087259Y00071109*
X00087149Y00071069*
X00082299*
X00082149Y00071039*
X00082029Y00070959*
X00079979Y00068909*
X00068909*
X00068849Y00069029*
X00068949Y00069159*
X00069059Y00069409*
X00069069Y00069539*
X00068079*
Y00069669*
X00067949*
Y00070659*
X00067819Y00070649*
X00067569Y00070539*
X00067359Y00070379*
X00067199Y00070169*
X00067189Y00070159*
X00067069Y00070179*
Y00071689*
X00067189Y00071719*
X00067199Y00071699*
X00067359Y00071489*
X00067569Y00071329*
X00067819Y00071229*
X00068079Y00071199*
X00068339Y00071229*
X00068579Y00071329*
X00068789Y00071489*
X00068949Y00071699*
X00069059Y00071949*
X00069089Y00072209*
X00069059Y00072469*
X00068949Y00072709*
X00068789Y00072919*
X00068579Y00073079*
X00068339Y00073189*
X00068079Y00073219*
X00067819Y00073189*
X00067569Y00073079*
X00067359Y00072919*
X00067199Y00072709*
X00067189Y00072699*
X00067069Y00072719*
Y00074229*
X00067189Y00074259*
X00067199Y00074239*
X00067359Y00074029*
X00067569Y00073869*
X00067819Y00073769*
X00068079Y00073739*
X00068339Y00073769*
X00068579Y00073869*
X00068789Y00074029*
X00068949Y00074239*
X00069059Y00074489*
X00069089Y00074749*
X00069059Y00075009*
X00068949Y00075249*
X00068789Y00075459*
X00068579Y00075619*
X00068339Y00075729*
X00068079Y00075759*
X00067819Y00075729*
X00067569Y00075619*
X00067359Y00075459*
X00067199Y00075249*
X00067189Y00075239*
X00067069Y00075259*
Y00076769*
X00067189Y00076799*
X00067199Y00076779*
X00067359Y00076569*
X00067569Y00076409*
X00067819Y00076309*
X00068079Y00076279*
X00068339Y00076309*
X00068579Y00076409*
X00068789Y00076569*
X00068949Y00076779*
X00069059Y00077029*
X00069089Y00077289*
X00069059Y00077549*
X00068949Y00077789*
X00068789Y00077999*
X00068579Y00078159*
X00068459Y00078219*
X00068439Y00078329*
X00068349Y00078449*
X00068099Y00078699*
X00068139Y00078819*
X00068339Y00078849*
X00068579Y00078949*
X00068789Y00079109*
X00068949Y00079319*
X00069059Y00079569*
X00069089Y00079829*
X00069059Y00080089*
X00068949Y00080329*
X00068789Y00080539*
X00068579Y00080699*
X00068339Y00080809*
X00068079Y00080839*
X00067819Y00080809*
X00067569Y00080699*
X00067359Y00080549*
X00067239Y00080569*
X00067209Y00080609*
X00066569Y00081249*
X00066449Y00081329*
X00066299Y00081359*
X00066049*
X00066029Y00081479*
X00066039Y00081489*
X00066249Y00081649*
X00066409Y00081859*
X00066519Y00082109*
X00066549Y00082369*
X00066519Y00082629*
X00066469Y00082749*
X00066969Y00083249*
X00067379*
X00067419Y00083129*
G37*
%LNmain_board_pcb-4*%
%LPC*%
G36*
X00072009Y00079619D02*
Y00078869D01*
X00072759*
X00072749Y00078969*
X00072659Y00079189*
X00072519Y00079369*
X00072329Y00079519*
X00072109Y00079609*
X00072009Y00079619*
G37*
G36*
X00071749D02*
X00071649Y00079609D01*
X00071429Y00079519*
X00071249Y00079369*
X00071109Y00079189*
X00071019Y00078969*
X00070999Y00078869*
X00071749*
Y00079619*
G37*
G36*
X00072759Y00078609D02*
X00072009D01*
Y00077859*
X00072109Y00077869*
X00072329Y00077959*
X00072519Y00078109*
X00072659Y00078289*
X00072749Y00078509*
X00072759Y00078609*
G37*
G36*
X00081009Y00079949D02*
X00080139D01*
Y00079089*
X00080279Y00079099*
X00080519Y00079199*
X00080729Y00079369*
X00080889Y00079579*
X00080989Y00079819*
X00081009Y00079949*
G37*
G36*
X00079889D02*
X00079019D01*
X00079039Y00079819*
X00079139Y00079579*
X00079299Y00079369*
X00079509Y00079199*
X00079749Y00079099*
X00079889Y00079089*
Y00079949*
G37*
G36*
X00077479Y00081089D02*
X00077209Y00081059D01*
X00076969Y00080959*
X00076759Y00080799*
X00076599Y00080589*
X00076499Y00080339*
X00076459Y00080079*
X00076499Y00079819*
X00076599Y00079579*
X00076759Y00079369*
X00076969Y00079199*
X00077209Y00079099*
X00077479Y00079069*
X00077739Y00079099*
X00077979Y00079199*
X00078189Y00079369*
X00078349Y00079579*
X00078449Y00079819*
X00078489Y00080079*
X00078449Y00080339*
X00078349Y00080589*
X00078189Y00080799*
X00077979Y00080959*
X00077739Y00081059*
X00077479Y00081089*
G37*
G36*
X00071749Y00078609D02*
X00070999D01*
X00071019Y00078509*
X00071109Y00078289*
X00071249Y00078109*
X00071429Y00077959*
X00071649Y00077869*
X00071749Y00077859*
Y00078609*
G37*
G36*
X00079889Y00077409D02*
X00079019D01*
X00079039Y00077279*
X00079139Y00077039*
X00079299Y00076829*
X00079509Y00076659*
X00079749Y00076559*
X00079889Y00076549*
Y00077409*
G37*
G36*
X00080019Y00072849D02*
X00079779Y00072819D01*
X00079569Y00072729*
X00079379Y00072589*
X00079239Y00072399*
X00079149Y00072189*
X00079119Y00071949*
X00079149Y00071719*
X00079169Y00071659*
X00078839Y00071329*
X00072179*
X00072159Y00071389*
X00072009Y00071569*
X00071829Y00071709*
X00071609Y00071799*
X00071379Y00071829*
X00071149Y00071799*
X00070929Y00071709*
X00070749Y00071569*
X00070599Y00071389*
X00070509Y00071169*
X00070479Y00070939*
X00070509Y00070709*
X00070599Y00070489*
X00070749Y00070299*
X00070929Y00070159*
X00071149Y00070069*
X00071379Y00070039*
X00071609Y00070069*
X00071829Y00070159*
X00072009Y00070299*
X00072159Y00070489*
X00072179Y00070549*
X00078999*
X00079149Y00070579*
X00079269Y00070659*
X00079719Y00071109*
X00079779Y00071089*
X00080019Y00071059*
X00080249Y00071089*
X00080459Y00071179*
X00080649Y00071319*
X00080789Y00071509*
X00080879Y00071719*
X00080909Y00071949*
X00080879Y00072189*
X00080789Y00072399*
X00080649Y00072589*
X00080459Y00072729*
X00080249Y00072819*
X00080019Y00072849*
G37*
G36*
X00068199Y00070659D02*
Y00069789D01*
X00069069*
X00069059Y00069929*
X00068949Y00070169*
X00068789Y00070379*
X00068579Y00070539*
X00068339Y00070649*
X00068199Y00070659*
G37*
G36*
X00080139Y00078539D02*
Y00077669D01*
X00081009*
X00080989Y00077799*
X00080889Y00078049*
X00080729Y00078259*
X00080519Y00078419*
X00080279Y00078519*
X00080139Y00078539*
G37*
G36*
X00079889D02*
X00079749Y00078519D01*
X00079509Y00078419*
X00079299Y00078259*
X00079139Y00078049*
X00079039Y00077799*
X00079019Y00077669*
X00079889*
Y00078539*
G37*
G36*
X00081009Y00077409D02*
X00080139D01*
Y00076549*
X00080279Y00076559*
X00080519Y00076659*
X00080729Y00076829*
X00080889Y00077039*
X00080989Y00077279*
X00081009Y00077409*
G37*
%LNmain_board_pcb-5*%
%LPD*%
G54D10*
X00093729Y00070099D02*
X00095759D01*
X00096769Y00071119*
X00092199Y00071629D02*
X00093729Y00070099D01*
X00082299Y00071629D02*
X00092199D01*
X00105409Y00069089D02*
X00106679Y00067819D01*
X00091879Y00069669D02*
X00092459Y00069089D01*
X00106679Y00067819D02*
X00108199D01*
X00092459Y00069089D02*
X00105409D01*
X00091949Y00070869D02*
X00093219Y00069599D01*
X00106429D02*
X00106679Y00069849D01*
X00093219Y00069599D02*
X00106429D01*
X00088149Y00070869D02*
X00091949D01*
X00076939Y00084019D02*
X00081159D01*
X00075319Y00082399D02*
X00076939Y00084019D01*
X00075319Y00081279D02*
Y00082399D01*
Y00078679D02*
Y00081279D01*
X00069169D02*
X00075319D01*
X00068079Y00082369D02*
X00069169Y00081279D01*
X00087959Y00089729D02*
X00089659Y00091439D01*
X00078809Y00089729D02*
X00087959D01*
X00077479Y00088399D02*
X00078809Y00089729D01*
X00089659Y00091439D02*
Y00092199D01*
X00077479Y00087699D02*
Y00088399D01*
X00088899Y00083119D02*
X00090679Y00084899D01*
X00088899Y00080459D02*
X00089279Y00080079D01*
X00088899Y00080459D02*
Y00083119D01*
X00089279Y00080079D02*
X00090679D01*
X00090179Y00082619D02*
X00091439Y00083889D01*
Y00093729*
X00091949Y00081859D02*
X00092199Y00082109D01*
X00073669Y00091259D02*
X00077149Y00094739D01*
X00090419D02*
X00091439Y00093729D01*
X00077149Y00094739D02*
X00090419D01*
X00092199Y00082109D02*
Y00093979D01*
X00090779Y00095399D02*
X00092199Y00093979D01*
X00073209Y00095399D02*
X00090779D01*
X00072399Y00088719D02*
X00077719Y00094049D01*
X00090679Y00084899D02*
Y00093469D01*
X00090099Y00094049D02*
X00090679Y00093469D01*
X00077719Y00094049D02*
X00090099D01*
X00088239Y00088289D02*
X00088389Y00088139D01*
X00085429Y00088289D02*
X00088239D01*
X00110489Y00091049D02*
X00116839Y00097399D01*
X00106839Y00091049D02*
X00110489D01*
X00105159Y00089369D02*
X00106839Y00091049D01*
X00105159Y00085089D02*
Y00089369D01*
X00104899Y00084839D02*
X00105159Y00085089D01*
X00104899Y00083309D02*
Y00084839D01*
X00116839Y00097399D02*
Y00100329D01*
X00105919Y00088899D02*
X00107439Y00090419D01*
X00110999*
X00119379Y00098809*
Y00100329*
X00105159Y00080519D02*
X00105919Y00081279D01*
Y00088899*
X00120649Y00091949D02*
Y00096269D01*
X00106779Y00092809D02*
X00114299Y00100329D01*
X00106479Y00092809D02*
X00106779D01*
X00107489Y00087379D02*
X00118869D01*
X00114549Y00064259D02*
Y00068579D01*
X00120899Y00057909D02*
X00127509D01*
X00114549Y00064259D02*
X00120899Y00057909D01*
X00113279Y00052829D02*
X00116329Y00049779D01*
X00109729Y00071629D02*
X00113279Y00068069D01*
Y00052829D02*
Y00068069D01*
X00101349Y00073409D02*
X00103119Y00071629D01*
X00109729*
X00101349Y00073409D02*
Y00082799D01*
X00100329Y00083819D02*
Y00085089D01*
Y00083819D02*
X00101349Y00082799D01*
X00101599Y00084069D02*
Y00086609D01*
Y00084069D02*
X00102359Y00083309D01*
Y00073909D02*
X00103629Y00072639D01*
X00102359Y00073909D02*
Y00083309D01*
X00116079Y00067059D02*
Y00069089D01*
Y00067059D02*
X00120899Y00062229D01*
X00111509Y00073659D02*
X00116079Y00069089D01*
X00104389Y00073659D02*
X00111509D01*
X00103379Y00074679D02*
X00104389Y00073659D01*
X00103379Y00074679D02*
Y00086609D01*
X00110489Y00072639D02*
X00114549Y00068579D01*
X00103629Y00072639D02*
X00110489D01*
X00116329Y00049779D02*
X00129789D01*
X00141739Y00079249D02*
Y00079319D01*
X00093729Y00051559D02*
Y00064519D01*
X00096519Y00067309*
X00101089*
X00089329Y00047129D02*
Y00049709D01*
Y00046129D02*
Y00047129D01*
Y00049709D02*
X00091189Y00051559D01*
X00093729*
X00109219Y00064009D02*
Y00065529D01*
X00108709Y00066039D02*
X00109219Y00065529D01*
X00102359Y00066039D02*
X00108709D01*
X00101089Y00067309D02*
X00102359Y00066039D01*
X00081789Y00072139D02*
X00082299Y00071629D01*
X00087559Y00070279D02*
X00088149Y00070869D01*
X00081789Y00072139D02*
Y00080839D01*
X00084329Y00043129D02*
X00087329Y00046129D01*
X00089329*
X00125289Y00069089D02*
X00137669D01*
X00139009Y00067749*
X00140329*
X00141459Y00066619*
X00141739*
X00128329Y00072839D02*
X00140589D01*
X00123439Y00077719D02*
Y00081229D01*
Y00077719D02*
X00128329Y00072839D01*
X00127689Y00071699D02*
X00139199D01*
X00122309Y00077079D02*
Y00080079D01*
Y00077079D02*
X00127689Y00071699D01*
X00065019Y00049499D02*
X00082919D01*
X00083079Y00049329*
X00063839Y00064769D02*
X00089339D01*
X00089329Y00045129D02*
Y00046129D01*
X00083329Y00043129D02*
X00084329D01*
X00065539Y00089989D02*
X00066809Y00091259D01*
X00073669*
X00066679Y00069159D02*
X00067319Y00068519D01*
X00066679Y00069159D02*
Y00078679D01*
X00065539Y00079829D02*
X00066679Y00078679D01*
X00063379Y00068419D02*
X00064519Y00067279D01*
X00063379Y00068419D02*
Y00079829D01*
X00064519Y00080969*
X00066299*
X00066929Y00080339*
Y00079319D02*
Y00080339D01*
Y00079319D02*
X00068079Y00078179D01*
Y00077289D02*
Y00078179D01*
X00077479Y00082619D02*
X00078749Y00081349D01*
X00064389Y00091379D02*
X00065539Y00092529D01*
X00064389Y00089349D02*
Y00091379D01*
Y00089349D02*
X00065029Y00088719D01*
X00069459Y00086299D02*
X00070229Y00085539D01*
X00066929Y00086299D02*
X00069459D01*
X00065539Y00084909D02*
X00066929Y00086299D01*
X00063899Y00075649D02*
X00065539Y00077289D01*
X00063899Y00068769D02*
Y00075649D01*
X00067039Y00094029D02*
X00070359D01*
X00065539Y00092529D02*
X00067039Y00094029D01*
X00140589Y00072839D02*
X00141739Y00071699D01*
X00140569Y00070329D02*
X00141739Y00069159D01*
X00122649Y00070329D02*
X00140569D01*
X00065539Y00082369D02*
X00066809Y00083639D01*
X00080019Y00077539D02*
Y00080079D01*
X00139199Y00076779D02*
X00141739D01*
X00139199Y00092019D02*
X00141739Y00094559D01*
X00069559Y00058239D02*
X00076749D01*
X00084329Y00049329D02*
X00085579D01*
X00139199Y00074239D02*
X00141739D01*
X00073159Y00095349D02*
X00073209Y00095399D01*
X00087149Y00070679D02*
X00087559Y00070279D01*
X00080139Y00068519D02*
X00082299Y00070679D01*
X00067319Y00068519D02*
X00080139D01*
X00082299Y00070679D02*
X00087149D01*
X00081159Y00084019D02*
X00085429Y00088289D01*
X00076459Y00077539D02*
X00077479D01*
X00075319Y00078679D02*
X00076459Y00077539D01*
X00063899Y00068769D02*
X00064649Y00068019D01*
X00083079Y00049329D02*
X00084329D01*
X00089339Y00064769D02*
X00090939Y00066369D01*
Y00069669*
X00063759Y00064839D02*
X00063839Y00064769D01*
X00068079Y00069669D02*
X00068709Y00069029D01*
X00079629*
X00064649Y00068019D02*
X00080649D01*
X00082009Y00069379*
X00079629Y00069029D02*
X00081289Y00070679D01*
X00071379Y00070939D02*
X00078999D01*
X00080019Y00071949*
X00081289Y00081349D02*
X00081789Y00080839D01*
X00078749Y00081349D02*
X00081289D01*
Y00070679D02*
Y00077029D01*
X00080779Y00077539D02*
X00081289Y00077029D01*
X00080019Y00077539D02*
X00080779D01*
X00071639Y00085539D02*
X00071669D01*
X00071629D02*
X00071639D01*
X00070229D02*
X00071629D01*
X00071669D02*
X00077999Y00091869D01*
X00087029*
X00072139Y00084909D02*
X00078089Y00090849D01*
X00084229*
X00068079Y00084909D02*
X00072139D01*
X00071889Y00083639D02*
X00075949Y00087699D01*
X00066809Y00083639D02*
X00071889D01*
X00075949Y00087699D02*
X00077479D01*
X00071249Y00086559D02*
X00071509D01*
X00077829Y00092879*
X00081539*
X00065029Y00088719D02*
X00072399D01*
X00084079Y00077029D02*
X00084589D01*
X00083059Y00076019D02*
X00084079Y00077029D01*
X00083059Y00072969D02*
Y00076019D01*
X00122219Y00082459D02*
X00123439Y00081229D01*
X00122169Y00069849D02*
X00122649Y00070329D01*
X00090939Y00069669D02*
X00091879D01*
X00064519Y00067279D02*
X00081959D01*
X00083769Y00069089*
X00083819*
X00084069Y00069339*
X00085339*
X00118869Y00087379D02*
X00124459Y00081789D01*
Y00078739D02*
Y00081789D01*
Y00078739D02*
X00128019Y00075179D01*
X00129789*
G54D11*
X00140719Y00037079D03*
X00132839Y00100329D03*
X00061209Y00100079D03*
X00060959Y00036829D03*
G54D12*
X00119379Y00100329D03*
X00116839D03*
X00114299D03*
X00133859Y00053089D03*
Y00055629D03*
Y00058169D03*
Y00040129D03*
Y00042669D03*
Y00045209D03*
X00076749Y00058239D03*
X00081749D03*
X00116339Y00054879D03*
X00069559Y00058239D03*
X00064559D03*
X00089329Y00045129D03*
Y00047129D03*
X00083329Y00043129D03*
X00085329D03*
X00080019Y00087699D03*
X00077479Y00085159D03*
X00080019D03*
X00077479Y00082619D03*
X00080019D03*
X00077479Y00080079D03*
X00080019D03*
X00077479Y00077539D03*
X00080019D03*
X00116299Y00041979D03*
X00111299D03*
X00141739Y00066619D03*
X00139199D03*
X00141739Y00069159D03*
X00139199D03*
X00141739Y00071699D03*
X00139199D03*
X00141739Y00074239D03*
X00139199D03*
X00141739Y00076779D03*
X00139199D03*
X00141739Y00079319D03*
X00139199D03*
X00141739Y00081859D03*
X00139199D03*
X00141739Y00084399D03*
X00139199D03*
X00141739Y00086939D03*
X00139199D03*
X00141739Y00089479D03*
X00139199D03*
X00141739Y00092019D03*
X00139199D03*
X00141739Y00094559D03*
X00139199D03*
X00141739Y00097099D03*
X00068079Y00069669D03*
X00065539D03*
X00068079Y00072209D03*
X00065539D03*
X00068079Y00074749D03*
X00065539D03*
X00068079Y00077289D03*
X00065539D03*
X00068079Y00079829D03*
X00065539D03*
X00068079Y00082369D03*
X00065539D03*
X00068079Y00084909D03*
X00065539D03*
X00068079Y00087449D03*
X00065539D03*
X00068079Y00089989D03*
X00065539D03*
X00068079Y00092529D03*
G54D13*
X00111759Y00100329D03*
X00109839Y00054879D03*
G54D14*
X00133859Y00060709D03*
Y00037589D03*
X00077479Y00087699D03*
X00139199Y00097099D03*
X00065539Y00092529D03*
G54D15*
X00063759Y00045279D03*
Y00042739D03*
X00097799Y00039439D03*
X00100339D03*
G54D16*
X00063759Y00040199D03*
G54D17*
X00085579Y00049329D03*
X00083079D03*
G54D18*
X00089329Y00046129D03*
G54D19*
X00084329Y00043129D03*
G54D20*
X00084329Y00049329D03*
G54D21*
X00102879Y00039439D03*
G54D22*
X00089659Y00092199D03*
X00104899Y00083309D03*
X00105159Y00080519D03*
X00127509Y00057909D03*
X00120899Y00062229D03*
X00103379Y00086609D03*
X00101599D03*
X00129789Y00049779D03*
X00123109Y00053339D03*
X00100329Y00085089D03*
X00109219Y00064009D03*
X00106929Y00035559D03*
X00101089Y00067309D03*
X00096769Y00071119D03*
X00116329Y00035559D03*
X00090169Y00037339D03*
X00093729Y00051559D03*
X00120649Y00091949D03*
X00065019Y00049279D03*
X00068829Y00062229D03*
X00078229Y00046229D03*
X00067259Y00046379D03*
X00068329Y00054099D03*
X00136399Y00075179D03*
X00120649Y00096269D03*
X00073149Y00058169D03*
X00108459Y00078739D03*
X00065019Y00095759D03*
X00074939Y00084979D03*
X00085099Y00081679D03*
X00081539Y00092879D03*
X00071249Y00086559D03*
X00090179Y00082619D03*
X00084589Y00077029D03*
X00071379Y00070939D03*
X00087559Y00070279D03*
X00106679Y00069849D03*
X00085339Y00069339D03*
X00108199Y00067819D03*
X00073159Y00095349D03*
X00106479Y00092809D03*
X00084329Y00090749D03*
X00087129Y00091769D03*
X00082619Y00069379D03*
X00070359Y00094029D03*
X00088389Y00088139D03*
X00122309Y00080079D03*
X00125289Y00069089D03*
X00090939Y00069669D03*
X00063759Y00064839D03*
X00080019Y00071949D03*
X00083059Y00072969D03*
X00090679Y00080079D03*
X00091949Y00081859D03*
X00099569Y00081279D03*
X00133809Y00092099D03*
X00071879Y00078739D03*
X00122219Y00082459D03*
X00122169Y00069849D03*
X00084329Y00039369D03*
X00107489Y00087379D03*
X00129789Y00075179D03*
M02*