%FSTAX53Y53*%
%MOMM*%
%SFA1B1*%

%IPPOS*%
%AMD9500*
%
%AMD9501*
%
%AMD9502*
%
%AMD9503*
%
%AMD9504*
%
%LNmain_board_pcb-plated-1*%
%LPD*%
G54D9500*
X00109839Y00054879D03*
X00116339D03*
G54D9501*
X00084329Y00039369D03*
X00090169Y00037339D03*
X00106929Y00035559D03*
X00116329D03*
X00123109Y00053339D03*
X00127509Y00057909D03*
X00129789Y00049779D03*
X00120899Y00062229D03*
X00122169Y00069849D03*
X00125289Y00069089D03*
X00129789Y00075179D03*
X00136399D03*
X00108459Y00078739D03*
X00106679Y00069849D03*
X00108199Y00067819D03*
X00109219Y00064009D03*
X00101089Y00067309D03*
X00096769Y00071119D03*
X00090939Y00069669D03*
X00087559Y00070279D03*
X00085339Y00069339D03*
X00082619Y00069379D03*
X00083059Y00072969D03*
X00080019Y00071949D03*
X00084589Y00077029D03*
X00093729Y00051559D03*
X00078229Y00046229D03*
X00067259Y00046379D03*
X00065019Y00049279D03*
X00068329Y00054099D03*
X00068829Y00062229D03*
X00063759Y00064839D03*
X00071379Y00070939D03*
X00071879Y00078739D03*
X00073149Y00058169D03*
X00074939Y00084979D03*
X00071249Y00086559D03*
X00070359Y00094029D03*
X00073159Y00095349D03*
X00065019Y00095759D03*
X00081539Y00092879D03*
X00084329Y00090749D03*
X00087129Y00091769D03*
X00089659Y00092199D03*
X00088389Y00088139D03*
X00090179Y00082619D03*
X00091949Y00081859D03*
X00090679Y00080079D03*
X00085099Y00081679D03*
X00099569Y00081279D03*
X00100329Y00085089D03*
X00101599Y00086609D03*
X00103379D03*
X00104899Y00083309D03*
X00105159Y00080519D03*
X00107489Y00087379D03*
X00106479Y00092809D03*
X00120649Y00091949D03*
Y00096269D03*
X00122219Y00082459D03*
X00122309Y00080079D03*
X00133809Y00092099D03*
G54D9502*
X00133859Y00037589D03*
Y00040129D03*
Y00042669D03*
Y00045209D03*
Y00053089D03*
Y00055629D03*
Y00058169D03*
Y00060709D03*
X00139199Y00066619D03*
Y00069159D03*
Y00071699D03*
Y00074239D03*
Y00076779D03*
Y00079319D03*
X00141739D03*
Y00076779D03*
Y00074239D03*
Y00071699D03*
Y00069159D03*
Y00066619D03*
X00116299Y00041979D03*
X00111299D03*
X00081749Y00058239D03*
X00080019Y00077539D03*
X00077479D03*
X00068079Y00077289D03*
X00065539D03*
Y00074749D03*
X00068079D03*
Y00072209D03*
X00065539D03*
Y00069669D03*
X00068079D03*
X00069559Y00058239D03*
X00064559D03*
X00076749D03*
X00077479Y00080079D03*
Y00082619D03*
Y00085159D03*
Y00087699D03*
X00068079Y00087449D03*
Y00089989D03*
Y00092529D03*
X00065539D03*
Y00089989D03*
Y00087449D03*
Y00084909D03*
X00068079D03*
Y00082369D03*
X00065539D03*
Y00079829D03*
X00068079D03*
X00080019Y00080079D03*
Y00082619D03*
Y00085159D03*
Y00087699D03*
X00111759Y00100329D03*
X00114299D03*
X00116839D03*
X00119379D03*
X00139199Y00097099D03*
X00141739D03*
Y00094559D03*
X00139199D03*
Y00092019D03*
X00141739D03*
Y00089479D03*
X00139199D03*
Y00086939D03*
X00141739D03*
Y00084399D03*
X00139199D03*
Y00081859D03*
X00141739D03*
G54D9503*
X00097799Y00039439D03*
X00100339D03*
X00102879D03*
X00089329Y00045129D03*
Y00047129D03*
X00085579Y00049329D03*
X00083079D03*
X00083329Y00043129D03*
X00085329D03*
X00063759Y00042739D03*
Y00040199D03*
Y00045279D03*
G54D9504*
X00060959Y00036829D03*
X00140719Y00037079D03*
X00061209Y00100079D03*
X00132839Y00100329D03*
M02*