%FSTAX53Y53*%
%MOMM*%
%SFA1B1*%

%IPPOS*%
%ADD10R,1.499997X1.699997*%
%ADD11R,1.599997X1.399997*%
%ADD12R,1.149998X2.099996*%
%ADD13R,5.699989X7.599985*%
%ADD14R,1.399997X1.599997*%
%ADD15R,1.299997X1.899996*%
%ADD16R,1.699997X1.499997*%
%ADD17R,5.199990X3.199994*%
%ADD18R,5.699989X2.199996*%
%ADD19O,1.949996X0.749999*%
%ADD20O,0.749999X1.949996*%
%ADD21R,1.649997X0.799998*%
%ADD22C,4.199992*%
%ADD23C,1.699997*%
%ADD24R,1.699997X1.699997*%
%ADD25R,1.699997X1.699997*%
%ADD26C,1.799996*%
%ADD27R,1.799996X1.799996*%
%ADD28C,1.699997*%
%ADD29O,2.199996X4.199992*%
%ADD30O,4.199992X2.199996*%
%ADD31O,4.699991X2.199996*%
%ADD32R,1.799996X1.799996*%
%ADD33C,1.469997*%
%LNmain_board_pcb-1*%
%LPD*%
G54D10*
X00070299Y00049599D03*
X00068399D03*
X00106499Y00095069D03*
X00108399D03*
X00063689Y00051629D03*
X00061789D03*
X00107119Y00064259D03*
X00105219D03*
X00102559Y00069919D03*
X00100659D03*
G54D11*
X00092709Y00097909D03*
Y00099709D03*
X00085599Y00067189D03*
Y00065389D03*
X00111509Y00067679D03*
Y00069479D03*
X00122169Y00065389D03*
Y00067189D03*
X00087119Y00099709D03*
Y00097909D03*
X00081529Y00099709D03*
Y00097909D03*
X00075949Y00099709D03*
Y00097909D03*
X00070359Y00099709D03*
Y00097909D03*
X00074939Y00038559D03*
Y00036759D03*
X00074679Y00044909D03*
Y00043109D03*
X00129289Y00081739D03*
Y00079939D03*
X00094229Y00069989D03*
Y00068189D03*
X00082549Y00065389D03*
Y00067189D03*
X00076959Y00065389D03*
Y00067189D03*
X00071369Y00065389D03*
Y00067189D03*
X00111509Y00065159D03*
Y00063359D03*
X00141989Y00059549D03*
Y00061349D03*
X00071629Y00038559D03*
Y00036759D03*
Y00044909D03*
Y00043109D03*
X00133599Y00075069D03*
Y00073269D03*
X00125219Y00065389D03*
Y00067189D03*
X00074169Y00065389D03*
Y00067189D03*
X00079759Y00065389D03*
Y00067189D03*
X00088139Y00065389D03*
Y00067189D03*
X00090929Y00065389D03*
Y00067189D03*
X00125989Y00081739D03*
Y00079939D03*
X00089919Y00099709D03*
Y00097909D03*
X00067559Y00099709D03*
Y00097909D03*
X00073149Y00099709D03*
Y00097909D03*
X00078739Y00099709D03*
Y00097909D03*
X00084329Y00099709D03*
Y00097909D03*
X00128269Y00065389D03*
Y00067189D03*
G54D12*
X00141729Y00051739D03*
X00137169D03*
G54D13*
X00139449Y00045489D03*
G54D14*
X00124319Y00055629D03*
X00126119D03*
X00141869Y00056129D03*
X00140069D03*
X00128889Y00055629D03*
X00130689D03*
X00128889Y00060709D03*
X00130689D03*
X00124319D03*
X00126119D03*
X00126879Y00077469D03*
X00125079D03*
X00108349Y00097859D03*
X00106549D03*
X00124329Y00095829D03*
X00126129D03*
X00095649Y00049089D03*
X00093849D03*
X00098669D03*
X00100469D03*
X00133469Y00077979D03*
X00135269D03*
X00124329Y00090749D03*
X00126129D03*
X00124329Y00098369D03*
X00126129D03*
X00095649Y00046299D03*
X00093849D03*
X00098669D03*
X00100469D03*
X00118229Y00082619D03*
X00120029D03*
X00118229Y00077539D03*
X00120029D03*
X00118229Y00069919D03*
X00120029D03*
X00118229Y00080079D03*
X00120029D03*
X00118229Y00074999D03*
X00120029D03*
X00118229Y00072459D03*
X00120029D03*
X00124329Y00093289D03*
X00126129D03*
X00126879Y00075179D03*
X00125079D03*
X00134499Y00050289D03*
X00132699D03*
G54D15*
X00125809Y00047499D03*
X00123109D03*
X00125809Y00051049D03*
X00123109D03*
X00125809Y00043939D03*
X00123109D03*
X00125809Y00037079D03*
X00123109D03*
X00125809Y00040639D03*
X00123109D03*
G54D16*
X00092199Y00041339D03*
Y00039439D03*
X00101609Y00096779D03*
Y00094879D03*
X00096779Y00096779D03*
Y00094879D03*
X00096009Y00065969D03*
Y00064069D03*
X00106929Y00037909D03*
Y00039809D03*
X00098299Y00067119D03*
Y00069019D03*
G54D17*
X00118989Y00055119D03*
X00107189D03*
G54D18*
X00091519Y00057909D03*
X00101019D03*
G54D19*
X00096239Y00088879D03*
Y00088079D03*
Y00087279D03*
Y00086479D03*
Y00085679D03*
Y00084879D03*
Y00084079D03*
Y00083279D03*
Y00082479D03*
Y00081679D03*
Y00080879D03*
Y00080079D03*
Y00079279D03*
Y00078479D03*
Y00077679D03*
Y00076879D03*
X00111539D03*
Y00077679D03*
Y00078479D03*
Y00079279D03*
Y00080079D03*
Y00080879D03*
Y00081679D03*
Y00082479D03*
Y00083279D03*
Y00084079D03*
Y00084879D03*
Y00085679D03*
Y00086479D03*
Y00087279D03*
Y00088079D03*
Y00088879D03*
G54D20*
X00097889Y00075229D03*
X00098689D03*
X00099489D03*
X00100289D03*
X00101089D03*
X00101889D03*
X00102689D03*
X00103489D03*
X00104289D03*
X00105089D03*
X00105889D03*
X00106689D03*
X00107489D03*
X00108289D03*
X00109089D03*
X00109889D03*
Y00090529D03*
X00109089D03*
X00108289D03*
X00107489D03*
X00106689D03*
X00105889D03*
X00105089D03*
X00104289D03*
X00103489D03*
X00102689D03*
X00101889D03*
X00101089D03*
X00100289D03*
X00099489D03*
X00098689D03*
X00097889D03*
G54D21*
X00114899Y00065209D03*
Y00063309D03*
X00117249Y00064259D03*
G54D22*
X00140719Y00037079D03*
X00132839Y00100329D03*
X00061209Y00100079D03*
X00060959Y00036829D03*
G54D23*
X00119379Y00100329D03*
X00116839D03*
X00114299D03*
X00133859Y00053089D03*
Y00055629D03*
Y00058169D03*
Y00040129D03*
Y00042669D03*
Y00045209D03*
X00076749Y00058239D03*
X00081749D03*
X00116339Y00054879D03*
X00069559Y00058239D03*
X00064559D03*
X00089329Y00045129D03*
Y00047129D03*
X00083329Y00043129D03*
X00085329D03*
X00080019Y00087699D03*
X00077479Y00085159D03*
X00080019D03*
X00077479Y00082619D03*
X00080019D03*
X00077479Y00080079D03*
X00080019D03*
X00077479Y00077539D03*
X00080019D03*
X00116299Y00041979D03*
X00111299D03*
X00141739Y00066619D03*
X00139199D03*
X00141739Y00069159D03*
X00139199D03*
X00141739Y00071699D03*
X00139199D03*
X00141739Y00074239D03*
X00139199D03*
X00141739Y00076779D03*
X00139199D03*
X00141739Y00079319D03*
X00139199D03*
X00141739Y00081859D03*
X00139199D03*
X00141739Y00084399D03*
X00139199D03*
X00141739Y00086939D03*
X00139199D03*
X00141739Y00089479D03*
X00139199D03*
X00141739Y00092019D03*
X00139199D03*
X00141739Y00094559D03*
X00139199D03*
X00141739Y00097099D03*
X00068079Y00069669D03*
X00065539D03*
X00068079Y00072209D03*
X00065539D03*
X00068079Y00074749D03*
X00065539D03*
X00068079Y00077289D03*
X00065539D03*
X00068079Y00079829D03*
X00065539D03*
X00068079Y00082369D03*
X00065539D03*
X00068079Y00084909D03*
X00065539D03*
X00068079Y00087449D03*
X00065539D03*
X00068079Y00089989D03*
X00065539D03*
X00068079Y00092529D03*
G54D24*
X00111759Y00100329D03*
X00109839Y00054879D03*
G54D25*
X00133859Y00060709D03*
Y00037589D03*
X00077479Y00087699D03*
X00139199Y00097099D03*
X00065539Y00092529D03*
G54D26*
X00063759Y00045279D03*
Y00042739D03*
X00097799Y00039439D03*
X00100339D03*
G54D27*
X00063759Y00040199D03*
G54D28*
X00085579Y00049329D03*
X00083079D03*
G54D29*
X00089329Y00046129D03*
G54D30*
X00084329Y00043129D03*
G54D31*
X00084329Y00049329D03*
G54D32*
X00102879Y00039439D03*
G54D33*
X00089659Y00092199D03*
X00104899Y00083309D03*
X00105159Y00080519D03*
X00127509Y00057909D03*
X00120899Y00062229D03*
X00103379Y00086609D03*
X00101599D03*
X00129789Y00049779D03*
X00123109Y00053339D03*
X00100329Y00085089D03*
X00109219Y00064009D03*
X00106929Y00035559D03*
X00101089Y00067309D03*
X00096769Y00071119D03*
X00116329Y00035559D03*
X00090169Y00037339D03*
X00093729Y00051559D03*
X00120649Y00091949D03*
X00065019Y00049279D03*
X00068829Y00062229D03*
X00078229Y00046229D03*
X00067259Y00046379D03*
X00068329Y00054099D03*
X00136399Y00075179D03*
X00120649Y00096269D03*
X00073149Y00058169D03*
X00108459Y00078739D03*
X00065019Y00095759D03*
X00074939Y00084979D03*
X00085099Y00081679D03*
X00081539Y00092879D03*
X00071249Y00086559D03*
X00090179Y00082619D03*
X00084589Y00077029D03*
X00071379Y00070939D03*
X00087559Y00070279D03*
X00106679Y00069849D03*
X00085339Y00069339D03*
X00108199Y00067819D03*
X00073159Y00095349D03*
X00106479Y00092809D03*
X00084329Y00090749D03*
X00087129Y00091769D03*
X00082619Y00069379D03*
X00070359Y00094029D03*
X00088389Y00088139D03*
X00122309Y00080079D03*
X00125289Y00069089D03*
X00090939Y00069669D03*
X00063759Y00064839D03*
X00080019Y00071949D03*
X00083059Y00072969D03*
X00090679Y00080079D03*
X00091949Y00081859D03*
X00099569Y00081279D03*
X00133809Y00092099D03*
X00071879Y00078739D03*
X00122219Y00082459D03*
X00122169Y00069849D03*
X00084329Y00039369D03*
X00107489Y00087379D03*
X00129789Y00075179D03*
M02*